<svg width="27" height="15" viewBox="0 0 27 15" fill="none" xmlns="http://www.w3.org/2000/svg">
<g clip-path="url(#clip0)">
<path d="M19.8386 3.9506C19.9703 3.8751 20.0624 3.82476 20.1677 3.76184C21.7211 2.80547 23.2877 1.84909 24.841 0.892717C25.5783 0.439697 26.3681 0.540368 26.7762 1.18215C26.9342 1.42124 26.9868 1.76101 26.9868 2.05044C27 5.15866 27 8.25429 27 11.3625C27 11.891 26.9868 12.4321 27 12.9607C27.0132 13.5018 26.842 13.9548 26.3286 14.2316C25.802 14.5211 25.3018 14.4078 24.8147 14.1058C23.2745 13.1494 21.7343 12.2056 20.194 11.2618C20.0887 11.1989 19.9703 11.136 19.8386 11.0605C19.8123 11.4632 19.8123 11.8407 19.7465 12.2056C19.47 13.7409 18.1141 14.886 16.4949 14.9741C16.3369 14.9867 16.1658 14.9867 16.0078 14.9867C11.9532 14.9867 7.88542 14.9867 3.83081 14.9867C2.89615 14.9867 2.05363 14.7979 1.3296 14.2065C0.434422 13.4766 0.0131643 12.5454 0 11.438C0 8.82057 0 6.19054 0.0131643 3.5605C0.0263286 1.83651 1.09264 0.527784 2.79083 0.0999316C3.05412 0.0370121 3.33057 -0.000739556 3.60702 -0.000739556C7.8196 -0.000739556 12.0322 -0.0133234 16.2448 -0.000739556C18.0614 0.0118443 19.4963 1.19473 19.786 2.90614C19.8386 3.24591 19.8254 3.58567 19.8386 3.9506ZM9.92589 13.9045C11.9664 13.9045 14.0068 13.9045 16.0473 13.9045C16.3369 13.9045 16.6397 13.8919 16.9293 13.8164C18.0746 13.5018 18.7591 12.5957 18.7723 11.3877C18.7723 8.7954 18.7723 6.20312 18.7723 3.62342C18.7723 2.02527 17.706 1.01856 16.0341 1.01856C11.9532 1.00597 7.88542 1.00597 3.81765 1.01856C3.5412 1.01856 3.25158 1.05631 2.97513 1.11923C1.98781 1.34574 1.06631 2.23919 1.07947 3.63601C1.1058 6.19054 1.07947 8.75765 1.09264 11.3122C1.09264 11.5764 1.1058 11.8407 1.17162 12.0924C1.48757 13.2375 2.4354 13.917 3.71234 13.917C5.77913 13.917 7.85909 13.9045 9.92589 13.9045ZM25.9337 7.51185C25.9337 5.69976 25.9337 3.88768 25.9337 2.0756C25.9337 1.93718 25.8942 1.74842 25.802 1.69809C25.7231 1.64775 25.5124 1.71067 25.4071 1.78617C23.6299 2.86839 21.8528 3.96319 20.0624 5.05799C19.9044 5.15866 19.8254 5.25933 19.8254 5.46067C19.8386 6.83231 19.8386 8.20396 19.8254 9.5756C19.8254 9.78953 19.9044 9.8902 20.0756 10.0035C21.8396 11.0731 23.6036 12.1553 25.3676 13.2249C25.4993 13.3004 25.6572 13.313 25.802 13.3634C25.8415 13.2123 25.9337 13.0613 25.9337 12.9103C25.9337 11.0857 25.9337 9.29876 25.9337 7.51185Z" fill="#038595"/>
<path d="M13.5013 11.9033C12.6246 11.4383 11.7781 10.9882 10.9468 10.5231C10.6898 10.3731 10.4933 10.3731 10.2364 10.5081C9.40502 10.9582 8.54346 11.3782 7.62143 11.8433C7.75746 11.0932 7.81792 10.3881 8.01442 9.72803C8.25627 8.91793 8.13534 8.31785 7.44004 7.79278C6.88078 7.37273 6.42732 6.83266 5.83783 6.26259C6.23083 6.20258 6.53313 6.15757 6.83543 6.11257C7.51562 6.02255 8.21092 5.93254 8.89111 5.85753C9.11783 5.82753 9.23876 5.72252 9.34456 5.52749C9.7829 4.65738 10.2212 3.80227 10.7049 2.85715C11.0072 3.50223 11.2793 4.0723 11.5514 4.62737C11.7479 5.03243 11.8537 5.5575 12.1862 5.79753C12.5036 6.03756 13.0478 5.97755 13.5013 6.05256C14.121 6.15757 14.7256 6.24758 15.4058 6.3676C14.65 7.08769 13.9547 7.76278 13.2292 8.42286C13.0478 8.58788 13.0024 8.7379 13.0327 8.97793C13.1838 9.83304 13.3199 10.7032 13.4559 11.5583C13.471 11.6483 13.4861 11.7533 13.5013 11.9033ZM12.3978 10.3281C12.3071 9.68303 12.2013 9.14296 12.1409 8.58788C12.1258 8.45287 12.2013 8.25784 12.292 8.15283C12.6548 7.73277 13.0327 7.32772 13.4106 6.92267C12.9269 6.84766 12.3978 6.74265 11.8688 6.69764C11.6118 6.66764 11.506 6.54762 11.4002 6.3376C11.1735 5.84253 10.9317 5.36247 10.6747 4.8224C10.4026 5.34747 10.1306 5.82753 9.90383 6.32259C9.79802 6.54762 9.66198 6.63763 9.42014 6.65264C8.87599 6.69764 8.34696 6.78765 7.697 6.87766C8.15046 7.31272 8.49811 7.68777 8.89111 8.01781C9.11783 8.21284 9.14806 8.40786 9.10272 8.6779C8.99691 9.18796 8.90622 9.69803 8.80041 10.2831C9.35968 9.99807 9.85848 9.72803 10.3724 9.503C10.5084 9.44299 10.72 9.44299 10.8561 9.503C11.3398 9.75804 11.8235 10.0281 12.3978 10.3281Z" fill="#038595"/>
</g>
<defs>
<clipPath id="clip0">
<rect width="30" height="17" fill="white"/>
</clipPath>
</defs>
</svg>
