<svg width="44" height="38" viewBox="0 0 44 38" fill="none" xmlns="http://www.w3.org/2000/svg">
<path d="M39.9425 5.84831C37.2282 5.84831 34.5139 5.84831 31.7997 5.84831C31.5425 5.84831 31.2854 5.84831 30.9426 5.84831C30.9426 5.20471 30.9426 4.61708 30.9426 4.00147C30.914 2.3785 30.2283 1.53903 28.5997 1.17526C28.3997 1.11929 28.1997 0.951399 28.0569 0.783505C27.5712 0.251841 27.0283 0 26.2855 0C24.8569 0 23.4283 0 21.9998 0C20.5712 0 19.1427 0 17.7141 0C16.9998 0 16.4284 0.251841 15.9713 0.811487C15.8284 0.979382 15.6284 1.14728 15.4284 1.20324C13.7999 1.56701 13.0856 2.40648 13.0856 4.02946C13.0856 4.61708 13.0856 5.2327 13.0856 5.87629C12.7427 5.87629 12.4856 5.87629 12.2285 5.87629C9.51419 5.87629 6.79993 5.87629 4.08567 5.87629C1.37142 5.84831 0 7.21944 0 9.84978C0 17.5449 0 25.2401 0 32.9352C0 33.3549 0.0285711 33.7747 0.0571423 34.1944C0.25714 36.2651 2.65712 38 4.34281 38C10.2285 37.972 16.1141 37.972 21.9998 37.972C27.8854 37.972 33.7711 38 39.6568 38C41.3424 38 43.7424 36.2651 43.9424 34.1944C43.971 33.7747 43.9996 33.3549 43.9996 32.9352C43.9996 25.2401 43.9996 17.5449 43.9996 9.84978C44.0281 7.21944 42.6567 5.84831 39.9425 5.84831ZM17.9141 1.31517C19.2855 1.31517 20.6284 1.31517 21.9998 1.31517H22.0284C23.3998 1.31517 24.7426 1.31517 26.114 1.31517C26.4855 1.31517 26.9712 1.2592 26.9712 1.81885C26.9712 2.35052 26.514 2.32253 26.1426 2.32253C24.7998 2.32253 23.4855 2.32253 22.1426 2.32253C22.1141 2.32253 22.0855 2.32253 22.0569 2.32253H22.0284C21.9998 2.32253 21.9712 2.32253 21.9426 2.32253C20.5998 2.32253 19.2855 2.32253 17.9427 2.32253C17.5713 2.32253 17.1141 2.32253 17.1141 1.81885C17.0855 1.2592 17.5427 1.31517 17.9141 1.31517ZM14.5141 3.55376C14.5713 3.21797 14.9141 2.8542 15.2284 2.60236C15.3427 2.51841 15.8284 2.63034 15.9713 2.79823C16.4284 3.35788 16.9713 3.6377 17.6855 3.6377C19.1141 3.6377 20.5712 3.6377 21.9998 3.6377C23.4283 3.6377 24.8855 3.6377 26.314 3.6377C27.0283 3.6377 27.5712 3.35788 28.0283 2.79823C28.1712 2.63034 28.6283 2.51841 28.7711 2.60236C29.0854 2.8542 29.4283 3.18999 29.4854 3.55376C29.5997 4.2813 29.514 5.03682 29.514 5.82032C26.9997 5.82032 24.4855 5.82032 21.9998 5.82032H21.9712C19.4855 5.82032 16.9998 5.82032 14.457 5.82032C14.4856 5.03682 14.4284 4.2813 14.5141 3.55376ZM42.6567 18.5523C42.6567 23.5052 42.6567 28.43 42.6567 33.3829C42.6567 35.3697 41.3424 36.6568 39.3139 36.6568C33.5425 36.6568 27.7997 36.6568 22.0284 36.6568H21.9998C16.2284 36.6568 10.4856 36.6568 4.71424 36.6568C2.65712 36.6568 1.37142 35.3976 1.37142 33.3829C1.37142 28.43 1.37142 23.5052 1.37142 18.5523C1.37142 18.3564 1.37142 18.1885 1.37142 17.8247C2.82854 19.3918 4.4571 20.1473 6.54279 20.1753C6.54279 21.3225 6.54279 22.4138 6.54279 23.5331C6.57136 24.8203 7.08564 25.8557 8.28563 26.4433C10.2856 27.3947 12.5713 25.9956 12.6284 23.813C12.657 22.6377 12.6284 21.4345 12.6284 20.2032C15.7713 20.2032 18.8855 20.2032 21.9998 20.2032H22.0284C25.1426 20.2032 28.2854 20.2032 31.3997 20.2032C31.3997 21.4345 31.3711 22.6377 31.3997 23.813C31.4568 25.9956 33.7425 27.3667 35.7425 26.4433C36.9711 25.8557 37.4853 24.8203 37.4853 23.5331C37.4853 22.4138 37.4853 21.3225 37.4853 20.1753C39.5425 20.1473 41.1996 19.3918 42.6567 17.8247C42.6567 18.1605 42.6567 18.3564 42.6567 18.5523ZM7.91421 20.1753C8.99991 20.1753 10.057 20.1753 11.2285 20.1753C11.2285 21.4624 11.257 22.7216 11.2285 23.9529C11.1999 24.7644 10.3999 25.38 9.57133 25.352C8.7142 25.324 7.99992 24.7364 7.97135 23.8969C7.88564 22.6937 7.91421 21.4624 7.91421 20.1753ZM32.7997 20.1753C33.9711 20.1753 35.0282 20.1753 36.1139 20.1753C36.1139 21.4345 36.1425 22.6657 36.1139 23.8969C36.0854 24.7364 35.3425 25.352 34.5139 25.352C33.6854 25.38 32.8854 24.7364 32.8568 23.9529C32.7425 22.7216 32.7997 21.4624 32.7997 20.1753ZM42.6567 14.1031C42.571 16.7055 40.3996 18.7761 37.7711 18.7761C32.514 18.7761 27.2854 18.7761 22.0284 18.7761C16.7713 18.7761 11.5427 18.7761 6.28565 18.7761C3.62854 18.7761 1.45713 16.6775 1.39999 14.1031C1.34284 12.5081 1.37142 10.9411 1.39999 9.3461C1.42856 8.11488 2.22855 7.30339 3.48568 7.19146C3.74282 7.16348 3.99996 7.16348 4.2571 7.16348C10.1713 7.16348 16.1141 7.16348 22.0284 7.16348C27.9426 7.16348 33.8854 7.16348 39.7996 7.16348C40.0567 7.16348 40.3139 7.16348 40.571 7.19146C41.8282 7.30339 42.6282 8.11488 42.6567 9.3461C42.6853 10.9411 42.6853 12.5361 42.6567 14.1031Z" fill="#FC6435"/>
</svg>
