<svg width="34" height="29" viewBox="0 0 34 29" fill="none" xmlns="http://www.w3.org/2000/svg">
<g opacity="0.4" clip-path="url(#clip0)">
<path d="M29.4614 2.04337C30.2243 2.12196 30.9677 2.12196 31.672 2.27914C33.1979 2.61315 33.9999 3.67412 33.9999 5.24594C33.9999 12.1226 33.9999 18.9993 33.9999 25.876C33.9999 27.8015 32.8066 29 30.8895 29C21.6559 29 12.4027 28.9804 3.16909 29.0197C1.36932 29.0197 -6.86236e-05 27.7033 0.0194941 25.876C0.0586195 18.9993 0.0586195 12.1226 0.0194941 5.24594C0.0194941 3.69377 1.03676 2.12196 3.05172 2.1416C3.57991 2.1416 4.08854 2.1416 4.67542 2.1416C4.75367 1.45394 4.51892 0.589437 5.28187 0.235778C5.73181 0.0196533 6.29913 5.62333e-06 6.78819 0.039301C8.05977 0.157187 7.94239 1.17887 7.96196 2.10231C14.0264 2.10231 20.0713 2.10231 26.1553 2.10231C26.1553 1.41464 26.214 0.72697 26.8595 0.334016C27.1725 0.13754 27.5834 0.0196533 27.9551 0.0196533C28.8941 0.0196533 29.3049 0.609084 29.4614 2.04337ZM1.13457 7.58402C1.13457 7.7019 1.11501 7.78049 1.11501 7.85908C1.11501 13.8909 1.11501 19.9424 1.11501 25.9743C1.11501 27.1335 1.81926 27.8408 2.97346 27.8408C12.3049 27.8408 21.6559 27.8408 30.9873 27.8408C31.2416 27.8408 31.5155 27.8015 31.7502 27.7033C32.5914 27.3692 32.8457 26.6816 32.8457 25.8171C32.8262 19.9031 32.8457 13.9892 32.8457 8.09486C32.8457 7.93768 32.8262 7.78049 32.8262 7.58402C22.2623 7.58402 11.718 7.58402 1.13457 7.58402ZM1.11501 6.38551C11.718 6.38551 22.2819 6.38551 32.8262 6.38551C33.2174 3.94919 32.0828 2.90786 29.5005 3.30082C29.3049 4.75475 28.8354 5.36383 27.8964 5.38347C27.5638 5.38347 27.1921 5.26559 26.8987 5.08876C26.2335 4.69581 26.1944 3.98849 26.1944 3.30082C20.0713 3.30082 14.0264 3.30082 7.98152 3.30082C7.86414 4.91193 7.62939 5.36383 6.72951 5.38347C6.22088 5.40312 5.65356 5.36383 5.22318 5.12805C4.49936 4.75475 4.73411 3.92954 4.65586 3.26152C4.04941 3.26152 3.4821 3.26152 2.91478 3.26152C1.93664 3.28117 1.21282 3.94919 1.13457 4.93158C1.09544 5.38347 1.11501 5.85502 1.11501 6.38551ZM5.81006 1.15922C5.81006 2.06301 5.82962 2.98646 5.81006 3.89025C5.7905 4.30285 6.04481 4.2832 6.31869 4.2832C6.59257 4.2832 6.82732 4.30285 6.82732 3.89025C6.80776 3.22223 6.82732 2.55421 6.82732 1.88618C6.82732 1.04133 6.82732 1.04133 5.96656 1.11992C5.90787 1.11992 5.90787 1.11992 5.81006 1.15922ZM28.3072 2.69174C28.3072 2.35773 28.3072 2.00407 28.3072 1.67006C28.3072 1.33605 28.1311 1.11992 27.8181 1.11992C27.4855 1.11992 27.3095 1.33605 27.3095 1.65041C27.2899 2.33808 27.3095 3.02575 27.3095 3.71342C27.3095 4.02778 27.4464 4.26356 27.7986 4.26356C28.1311 4.26356 28.3072 4.06708 28.3072 3.73307C28.3267 3.37941 28.3072 3.0454 28.3072 2.69174Z" fill="#0B0B0B"/>
<path d="M20.5799 24.0881C19.4453 23.479 18.3498 22.8896 17.2738 22.2805C16.9413 22.084 16.6869 22.084 16.3544 22.2609C15.2784 22.8503 14.1633 23.4004 12.97 24.0095C13.1461 23.0271 13.2243 22.1037 13.4787 21.2392C13.7917 20.1782 13.6352 19.3923 12.7353 18.7046C12.0114 18.1545 11.4246 17.4472 10.6616 16.7006C11.1703 16.622 11.5615 16.563 11.9528 16.5041C12.8331 16.3862 13.733 16.2683 14.6133 16.1701C14.9067 16.1308 15.0632 15.9932 15.2002 15.7378C15.7675 14.5983 16.3348 13.4783 16.9608 12.2405C17.3521 13.0854 17.7042 13.832 18.0563 14.559C18.3106 15.0895 18.4476 15.7771 18.878 16.0915C19.2888 16.4059 19.993 16.3273 20.5799 16.4255C21.382 16.563 22.1645 16.6809 23.0448 16.8381C22.0667 17.7812 21.1668 18.6653 20.2278 19.5298C19.993 19.746 19.9343 19.9424 19.9735 20.2568C20.1691 21.3767 20.3452 22.5163 20.5212 23.6362C20.5408 23.7541 20.5604 23.8916 20.5799 24.0881ZM19.1518 22.0251C19.0345 21.1802 18.8975 20.4729 18.8193 19.746C18.7997 19.5691 18.8975 19.3137 19.0149 19.1762C19.4844 18.626 19.9735 18.0956 20.4625 17.5651C19.8365 17.4668 19.1518 17.3293 18.4671 17.2703C18.1346 17.2311 17.9976 17.0739 17.8607 16.7988C17.5673 16.1504 17.2543 15.5217 16.9217 14.8144C16.5696 15.5021 16.2174 16.1308 15.924 16.7792C15.7871 17.0739 15.611 17.1918 15.298 17.2114C14.5937 17.2703 13.909 17.3882 13.0678 17.5061C13.6547 18.0759 14.1047 18.5671 14.6133 18.9993C14.9067 19.2548 14.9459 19.5102 14.8872 19.8638C14.7502 20.5319 14.6329 21.1999 14.4959 21.9661C15.2197 21.5928 15.8653 21.2392 16.5304 20.9445C16.7065 20.8659 16.9804 20.8659 17.1564 20.9445C17.7824 21.2785 18.4085 21.6321 19.1518 22.0251Z" fill="#0B0B0B"/>
</g>
<defs>
<clipPath id="clip0">
<rect width="34" height="29" fill="white"/>
</clipPath>
</defs>
</svg>
