<svg width="35" height="35" viewBox="0 0 35 35" fill="none" xmlns="http://www.w3.org/2000/svg">
<g clip-path="url(#clip0)">
<path d="M23.3332 5.83333C21.7246 5.83333 20.4165 4.52521 20.4165 2.91667C20.4165 1.30813 21.7246 0 23.3332 0C24.9417 0 26.2498 1.30813 26.2498 2.91667C26.2498 4.52521 24.9417 5.83333 23.3332 5.83333ZM23.3332 1.45833C22.5282 1.45833 21.8748 2.11313 21.8748 2.91667C21.8748 3.72021 22.5282 4.375 23.3332 4.375C24.1382 4.375 24.7915 3.72021 24.7915 2.91667C24.7915 2.11313 24.1382 1.45833 23.3332 1.45833Z" fill="#008897"/>
<path d="M32.0832 14.5833C30.4746 14.5833 29.1665 13.2752 29.1665 11.6667C29.1665 10.0581 30.4746 8.75 32.0832 8.75C33.6917 8.75 34.9998 10.0581 34.9998 11.6667C34.9998 13.2752 33.6917 14.5833 32.0832 14.5833ZM32.0832 10.2083C31.2782 10.2083 30.6248 10.8631 30.6248 11.6667C30.6248 12.4702 31.2782 13.125 32.0832 13.125C32.8882 13.125 33.5415 12.4702 33.5415 11.6667C33.5415 10.8631 32.8882 10.2083 32.0832 10.2083Z" fill="#008897"/>
<path d="M22.6043 14.5832C22.4482 14.5832 22.2893 14.5336 22.1566 14.4301C21.8372 14.1836 21.7803 13.7257 22.0282 13.4063L32.2366 0.281326C32.4845 -0.0365902 32.9424 -0.0949236 33.2589 0.154451C33.5782 0.40091 33.6351 0.858826 33.3872 1.1782L23.1789 14.3032C23.0359 14.4869 22.8201 14.5832 22.6043 14.5832Z" fill="#008897"/>
<path d="M28.4376 24.7917H9.47923C9.13215 24.7917 8.83319 24.5467 8.76465 24.2054L5.84798 9.62208C5.80423 9.40771 5.8611 9.18604 5.99819 9.01688C6.13527 8.84771 6.34527 8.75 6.56256 8.75H21.4842C21.8867 8.75 22.2134 9.07667 22.2134 9.47917C22.2134 9.88167 21.8882 10.2083 21.4842 10.2083H7.45215L10.0771 23.3333H27.8396L29.1069 16.9954C29.1871 16.6002 29.5853 16.3421 29.9644 16.4237C30.3596 16.5025 30.6163 16.886 30.5376 17.2812L29.1536 24.2054C29.0836 24.5467 28.7846 24.7917 28.4376 24.7917Z" fill="#008897"/>
<path d="M9.47771 24.7917C9.13792 24.7917 8.83458 24.5526 8.76458 24.2055L5.14937 6.1309C4.94667 5.11153 4.0425 4.37215 3.00417 4.37215H3.00271L0.730625 4.37507C0.729167 4.37507 0.729167 4.37507 0.729167 4.37507C0.326667 4.37507 0 4.0484 0 3.6459C0 3.2434 0.326667 2.91673 0.727708 2.91673L2.99979 2.91382H3.00417C4.73667 2.91382 6.24021 4.14611 6.58 5.84507L10.1938 23.9197C10.274 24.3149 10.0173 24.6984 9.62063 24.7771C9.57396 24.7874 9.52583 24.7917 9.47771 24.7917Z" fill="#008897"/>
<path d="M31.3542 27.7083H6.5625C5.35646 27.7083 4.375 26.7268 4.375 25.5208C4.375 24.3147 5.35646 23.3333 6.5625 23.3333H9.47917C9.88167 23.3333 10.2083 23.6599 10.2083 24.0624C10.2083 24.4649 9.88167 24.7916 9.47917 24.7916H6.5625C6.16146 24.7916 5.83333 25.1183 5.83333 25.5208C5.83333 25.9233 6.16146 26.2499 6.5625 26.2499H31.3542C31.7567 26.2499 32.0833 26.5766 32.0833 26.9791C32.0833 27.3816 31.7567 27.7083 31.3542 27.7083Z" fill="#008897"/>
<path d="M11.6667 35.0001C10.0581 35.0001 8.75 33.692 8.75 32.0834C8.75 30.4749 10.0581 29.1667 11.6667 29.1667C13.2752 29.1667 14.5833 30.4749 14.5833 32.0834C14.5833 33.692 13.2752 35.0001 11.6667 35.0001ZM11.6667 30.6251C10.8617 30.6251 10.2083 31.2799 10.2083 32.0834C10.2083 32.887 10.8617 33.5418 11.6667 33.5418C12.4717 33.5418 13.125 32.887 13.125 32.0834C13.125 31.2799 12.4717 30.6251 11.6667 30.6251Z" fill="#008897"/>
<path d="M24.7917 35.0001C23.1831 35.0001 21.875 33.692 21.875 32.0834C21.875 30.4749 23.1831 29.1667 24.7917 29.1667C26.4002 29.1667 27.7083 30.4749 27.7083 32.0834C27.7083 33.692 26.4002 35.0001 24.7917 35.0001ZM24.7917 30.6251C23.9867 30.6251 23.3333 31.2799 23.3333 32.0834C23.3333 32.887 23.9867 33.5418 24.7917 33.5418C25.5967 33.5418 26.25 32.887 26.25 32.0834C26.25 31.2799 25.5967 30.6251 24.7917 30.6251Z" fill="#008897"/>
</g>
<defs>
<clipPath id="clip0">
<rect width="35" height="35" fill="white"/>
</clipPath>
</defs>
</svg>
