<svg width="15" height="16" viewBox="0 0 15 16" fill="none" xmlns="http://www.w3.org/2000/svg">
<g clip-path="url(#clip0)">
<path d="M5.03957 16.0001C3.44921 15.9836 2.17899 15.3765 1.17726 14.1621C0.588624 13.451 0.222014 12.6141 0.0774362 11.6841C-0.19623 9.93372 0.242668 8.40209 1.3838 7.10568C1.71427 6.73371 2.06022 6.37815 2.39585 6.01166C2.82959 5.53576 3.5783 5.73268 3.74869 6.33986C3.8468 6.67901 3.75386 6.9744 3.5215 7.22602C3.14456 7.63628 2.76246 8.04653 2.39585 8.46773C1.95179 8.98739 1.70394 9.60551 1.62133 10.2947C1.50257 11.3012 1.74009 12.2093 2.34422 12.986C3.0826 13.9433 4.05334 14.3809 5.22029 14.2989C6.10842 14.2387 6.84164 13.8284 7.45093 13.1556C7.74009 12.8383 8.02924 12.5211 8.32356 12.2038C8.5869 11.9194 8.9122 11.8537 9.23234 11.985C9.70739 12.1874 9.87262 12.8602 9.53699 13.2759C9.23234 13.6534 8.89155 13.9925 8.57141 14.3536C8.27709 14.6818 7.94663 14.9662 7.58518 15.2069C6.98105 15.6117 6.32528 15.8633 5.61272 15.9508C5.40102 15.9836 5.18415 15.9891 5.03957 16.0001Z" fill="#55C16D"/>
<path d="M10.043 0C11.2513 0.0273504 12.3098 0.421197 13.2238 1.23624C14.1377 2.05128 14.7108 3.0906 14.9174 4.33778C15.1601 5.78188 14.8709 7.11658 14.0809 8.32C13.9105 8.58256 13.6988 8.81231 13.4923 9.04205C13.2031 9.36479 12.9036 9.68205 12.6041 9.99932C12.2995 10.3166 11.8709 10.3658 11.5611 10.1197C11.1377 9.78598 11.0964 9.21709 11.4682 8.80137C11.778 8.45128 12.0981 8.11214 12.4131 7.77299C13.0895 7.03453 13.4355 6.14838 13.3941 5.12C13.3477 4.02051 12.9139 3.12342 12.0929 2.44513C11.3649 1.84342 10.5336 1.6082 9.62478 1.71761C8.83477 1.8106 8.16351 2.17709 7.61101 2.77333C7.29088 3.11795 6.9759 3.46803 6.65576 3.81265C6.36144 4.12991 5.92254 4.17915 5.61273 3.93299C5.25645 3.65402 5.179 3.15624 5.43201 2.77333C5.45783 2.73504 5.47848 2.69675 5.50946 2.66393C5.9432 2.19897 6.35628 1.71214 6.81583 1.28547C7.67298 0.475897 8.69535 0.065641 9.84682 0.0164103C9.91394 0.00547009 9.98623 0.00547009 10.043 0Z" fill="#55C16D"/>
<path d="M4.71924 10.1033C4.74506 9.84616 4.84316 9.63829 5.00323 9.46325C6.29411 8.07385 7.59015 6.68992 8.88103 5.30599C9.17535 4.98872 9.64523 4.98325 9.98086 5.28411C10.2752 5.54667 10.3371 6.0718 10.079 6.40548C9.87759 6.66804 9.64007 6.90325 9.41287 7.14941C8.32337 8.32 7.23387 9.4906 6.14437 10.6612C5.73645 11.0933 5.1065 11.0168 4.83284 10.4862C4.77604 10.3713 4.76055 10.2345 4.71924 10.1033Z" fill="#55C16D"/>
</g>
<defs>
<clipPath id="clip0">
<rect width="15" height="16" fill="white"/>
</clipPath>
</defs>
</svg>
