<svg width="15" height="17" viewBox="0 0 15 17" fill="none" xmlns="http://www.w3.org/2000/svg">
<path opacity="0.4" d="M3.33333 8.63331H5V10.3H3.33333V8.63331ZM15 3.63331V15.3C15 16.2166 14.25 16.9666 13.3333 16.9666H1.66667C0.741667 16.9666 0 16.2166 0 15.3L0.00833333 3.63331C0.00833333 2.71665 0.741667 1.96665 1.66667 1.96665H2.5V0.299988H4.16667V1.96665H10.8333V0.299988H12.5V1.96665H13.3333C14.25 1.96665 15 2.71665 15 3.63331ZM1.66667 5.29998H13.3333V3.63331H1.66667V5.29998ZM13.3333 15.3V6.96665H1.66667V15.3H13.3333ZM10 10.3V8.63331H11.6667V10.3H10ZM6.66667 10.3V8.63331H8.33333V10.3H6.66667ZM3.33333 11.9666H5V13.6333H3.33333V11.9666ZM10 13.6333V11.9666H11.6667V13.6333H10ZM6.66667 13.6333V11.9666H8.33333V13.6333H6.66667Z" fill="black"/>
</svg>
