<svg width="34" height="34" viewBox="0 0 34 34" fill="none" xmlns="http://www.w3.org/2000/svg">
<path d="M17 34C26.3739 34 34 26.3739 34 17C34 7.62614 26.3739 0 17 0C7.62614 0 0 7.62614 0 17C0 26.3739 7.62614 34 17 34ZM17 1.51592C25.5381 1.51592 32.4841 8.46193 32.4841 17C32.4841 25.5381 25.5381 32.4841 17 32.4841C8.46193 32.4841 1.51592 25.5381 1.51592 17C1.51592 8.46193 8.46193 1.51592 17 1.51592Z" fill="#FC6435"/>
<path d="M12.8098 15.4722C14.5435 15.4722 15.9486 14.0667 15.9486 12.3334C15.949 10.5996 14.5435 9.19409 12.8098 9.19409C11.076 9.19409 9.6709 10.5996 9.6709 12.333C9.67259 14.0659 11.0768 15.4701 12.8098 15.4722ZM12.8098 10.71C13.706 10.71 14.4327 11.4367 14.4327 12.333C14.4331 13.2296 13.7065 13.9563 12.8098 13.9563C11.9135 13.9563 11.1868 13.2296 11.1868 12.333C11.1877 11.4371 11.9139 10.7113 12.8098 10.71Z" fill="#FC6435"/>
<path d="M17.8608 21.8573C17.8608 23.591 19.2664 24.9962 20.9997 24.9962C22.7334 24.9962 24.139 23.591 24.139 21.8573C24.139 20.1235 22.7334 18.718 20.9997 18.718C19.2668 18.7201 17.863 20.1244 17.8608 21.8573ZM22.623 21.8573C22.623 22.7536 21.8964 23.4802 20.9997 23.4802C20.1034 23.4802 19.3768 22.7536 19.3768 21.8573C19.3768 20.961 20.1034 20.2344 20.9997 20.2339C21.896 20.2352 22.6218 20.961 22.623 21.8573Z" fill="#FC6435"/>
<path d="M11.2283 25.8494C11.579 26.0783 12.0489 25.9793 12.2773 25.6287L22.992 9.19967C23.1404 8.97253 23.1565 8.68364 23.0343 8.44171C22.9116 8.19977 22.6692 8.04158 22.3985 8.0272C22.1278 8.01281 21.8698 8.14393 21.7222 8.37149L11.0075 24.8005C10.7787 25.1515 10.8777 25.621 11.2283 25.8494Z" fill="#FC6435"/>
</svg>
