<svg width="131" height="135" viewBox="0 0 131 135" fill="none" xmlns="http://www.w3.org/2000/svg">
<g clip-path="url(#clip0)">
<path d="M131 55.6591H0V135.071H131V55.6591Z" fill="#07A5A5"/>
<path d="M116.185 116.14H14.8155C11.98 116.14 9.71161 113.871 9.71161 111.035V13.0462C9.71161 10.2101 11.98 7.94116 14.8155 7.94116H116.114C118.949 7.94116 121.218 10.2101 121.218 13.0462V111.035C121.218 113.871 118.949 116.14 116.185 116.14Z" fill="#FEFBDC"/>
<path d="M61.1759 24.7453H28.6385V29.1413H61.1759V24.7453Z" fill="#008897"/>
<path d="M102.291 43.1093H28.6385V47.5053H102.291V43.1093Z" fill="#008897"/>
<path d="M102.291 49.7742H28.6385V54.1702H102.291V49.7742Z" fill="#008897"/>
<path d="M102.291 56.3682H28.6385V60.7642H102.291V56.3682Z" fill="#008897"/>
<path d="M0 135L65.3582 89.9764L131 135H0Z" fill="#008897"/>
<path d="M0 55.6591L58.4821 94.7269L0 135V55.6591Z" fill="#04979E"/>
<path d="M73.1559 95.2941L131 55.6591V135L73.1559 95.2941Z" fill="#04979E"/>
<path d="M121.217 18.7185C126.385 18.7185 130.575 14.5282 130.575 9.35924C130.575 4.19028 126.385 0 121.217 0C116.05 0 111.86 4.19028 111.86 9.35924C111.86 14.5282 116.05 18.7185 121.217 18.7185Z" fill="#F05A39"/>
</g>
<defs>
<clipPath id="clip0">
<rect width="131" height="135" fill="white"/>
</clipPath>
</defs>
</svg>
