<svg width="9" height="16" viewBox="0 0 9 16" fill="none" xmlns="http://www.w3.org/2000/svg">
<g opacity="0.3" clip-path="url(#clip0)">
<path d="M2.75211 15.999C2.51979 15.9194 2.49298 15.7514 2.49298 15.5214C2.50192 13.5225 2.50192 11.5148 2.50192 9.51589C2.50192 9.35669 2.50192 9.19748 2.50192 8.98521C1.66199 8.98521 0.848866 8.98521 0.00893543 8.98521C0 8.00345 0 7.07476 0 6.093C0.804189 6.093 1.60838 6.093 2.49298 6.093C2.49298 5.88073 2.48405 5.70384 2.49298 5.53579C2.52873 4.64248 2.46618 3.73148 2.60915 2.84701C2.90401 1.11346 4.25326 0.0255641 6.05822 -0.000969872C6.87134 -0.00981454 7.68447 0.0786321 8.53333 0.122855C8.53333 0.980788 8.53333 1.78565 8.53333 2.60821C7.97934 2.64359 7.41641 2.63474 6.86241 2.71434C6.11183 2.82048 5.70974 3.29809 5.69187 4.04104C5.674 4.70439 5.69187 5.3589 5.69187 6.06647C6.63009 6.06647 7.53257 6.06647 8.46185 6.06647C8.30995 7.04823 8.16698 7.96807 8.01508 8.94099C7.24663 8.94099 6.49606 8.94099 5.69187 8.94099C5.69187 9.15326 5.69187 9.30362 5.69187 9.46282C5.69187 11.4794 5.69187 13.496 5.7008 15.5126C5.7008 15.7337 5.66506 15.9017 5.44168 15.9902C4.5392 15.999 3.64565 15.999 2.75211 15.999Z" fill="black"/>
</g>
<defs>
<clipPath id="clip0">
<rect width="8.53333" height="16" fill="white"/>
</clipPath>
</defs>
</svg>
