<svg width="6" height="7" viewBox="0 0 6 7" fill="none" xmlns="http://www.w3.org/2000/svg">
<g opacity="0.4" clip-path="url(#clip0)">
<path d="M3.00039 0C3.87182 0 4.74087 0 5.61229 0.00262566C5.68134 0.00262566 5.75515 0.0236309 5.81944 0.0525131C5.96468 0.115529 6.03134 0.265191 5.9861 0.430608C5.95991 0.525131 5.91944 0.617029 5.86944 0.70105C5.24563 1.71193 4.61706 2.72281 3.98849 3.73368C3.92658 3.83083 3.90039 3.93323 3.90039 4.05139C3.90277 4.93098 3.90277 5.81058 3.90039 6.69017C3.90039 6.75581 3.89325 6.82671 3.87658 6.88972C3.84801 6.9895 3.77182 7.02888 3.68372 6.98687C3.63134 6.96324 3.58134 6.92911 3.5361 6.89235C3.10277 6.53001 2.67182 6.16767 2.24087 5.80533C2.14087 5.72131 2.09325 5.61103 2.09325 5.47187C2.09325 4.98087 2.09325 4.4925 2.09325 4.0015C2.09325 3.91223 2.07182 3.83608 2.02658 3.76257C1.39087 2.74119 0.762295 1.72243 0.131343 0.706302C0.0670568 0.601275 0.00991395 0.490998 0.00277109 0.359715C-0.00675272 0.228432 0.0480092 0.110278 0.157533 0.0630158C0.228962 0.0315079 0.309914 0.00525131 0.386104 0.00262566C1.25753 0 2.12896 0 3.00039 0Z" fill="black"/>
</g>
<defs>
<clipPath id="clip0">
<rect width="6" height="7" fill="white"/>
</clipPath>
</defs>
</svg>
