<svg width="20" height="11" viewBox="0 0 20 11" fill="none" xmlns="http://www.w3.org/2000/svg">
<g clip-path="url(#clip0)">
<path d="M11.218 0C9.49875 0 7.77945 0 6.05514 0C4.27569 0 2.49624 0 0.716792 0C0.165414 0 0 0.168056 0 0.723148C0 3.12176 0 5.52546 0 7.92407C0 9.68102 1.29825 11 3.02757 11C6.51629 11 10.01 11 13.4987 11C14.0752 11 14.2256 10.8472 14.2256 10.2667C14.2256 7.86806 14.2256 5.46435 14.2256 3.06574C14.2306 1.31898 12.9373 0.00509259 11.218 0Z" fill="#468CF7"/>
<path d="M19.9951 5.50511C19.9951 3.82455 19.9951 2.144 19.9951 0.468535C19.9951 0.305572 19.9901 0.132424 19.8297 0.0407577C19.6793 -0.0407238 19.539 0.0254799 19.4137 0.122239C17.9851 1.1815 16.5565 2.24585 15.123 3.30002C14.9726 3.41205 14.9375 3.53428 14.9375 3.71252C14.9425 4.90928 14.9425 6.10604 14.9375 7.30279C14.9375 7.50141 14.9976 7.62872 15.1581 7.75094C16.5515 8.77455 17.94 9.80835 19.3285 10.8371C19.4788 10.9491 19.6392 11.0764 19.8297 10.9746C20.0252 10.8727 20.0001 10.6639 20.0001 10.4755C20.0001 8.8102 19.9951 7.15511 19.9951 5.50511Z" fill="#468CF7"/>
</g>
<defs>
<clipPath id="clip0">
<rect width="20" height="11" fill="white"/>
</clipPath>
</defs>
</svg>
