<svg width="13" height="19" viewBox="0 0 13 19" fill="none" xmlns="http://www.w3.org/2000/svg">
<path opacity="0.4" d="M13 6.64206C12.9826 5.73745 12.8316 4.85744 12.5066 4.02052C11.897 2.45128 10.8405 1.34359 9.38336 0.654353C8.24554 0.112813 7.04386 -0.0841111 5.80155 0.051274C4.1819 0.223582 2.75382 0.863584 1.6218 2.13128C0.803271 3.04821 0.327245 4.1436 0.118258 5.38052C0.00795841 6.02668 -0.0384836 6.68514 0.0369844 7.33745C0.0660105 7.60207 0.124063 7.87284 0.19953 8.1313C0.553647 9.42977 1.15739 10.6113 1.81918 11.7559C2.76543 13.399 3.8452 14.9436 4.89594 16.5067C5.16878 16.9129 5.44163 17.3313 5.70867 17.7436C6.12084 18.3713 6.88132 18.359 7.29929 17.7252C8.28618 16.2298 9.29048 14.7467 10.2657 13.2452C11.0262 12.0698 11.7461 10.8698 12.2976 9.56515C12.582 8.88823 12.8258 8.19899 12.9419 7.46668C12.9768 7.19591 12.9826 6.91899 13 6.64206ZM9.82455 6.80822C9.81875 8.83899 8.33842 10.3467 6.48076 10.3344C4.55343 10.3221 3.15438 8.74053 3.16018 6.79591C3.16599 4.83898 4.66373 3.25128 6.50398 3.26975C8.35003 3.28205 9.83616 4.8636 9.82455 6.80822Z" fill="black"/>
</svg>
