<svg width="26" height="12" viewBox="0 0 26 12" fill="none" xmlns="http://www.w3.org/2000/svg">
<path opacity="0.05" d="M12.982 4.21007C13.8647 3.48432 14.7032 2.75315 15.5804 2.07073C16.463 1.38289 17.3733 0.689637 18.4656 0.359259C20.5454 -0.269002 22.5258 -0.155265 24.2139 1.36123C25.4552 2.47152 26.0179 3.89594 25.9958 5.54241C25.9793 6.73394 25.6924 7.84423 25.0249 8.8462C24.1753 10.1136 22.9341 10.7635 21.428 10.9368C19.2048 11.1913 17.2519 10.5685 15.5693 9.12783C14.7805 8.45083 14.0192 7.74674 13.2413 7.0589C13.1696 6.99391 13.0979 6.92892 13.0151 6.8531C12.4414 7.37845 11.8842 7.90381 11.3105 8.40208C10.4444 9.15491 9.56721 9.90774 8.49147 10.3735C6.92474 11.0505 5.29732 11.1913 3.64784 10.7526C1.9763 10.3031 0.900548 9.18741 0.370949 7.59509C-0.213817 5.82405 -0.153133 4.06925 0.883998 2.44444C2.01491 0.673389 3.69749 -0.0415286 5.78831 0.0234639C7.32194 0.0722083 8.61283 0.689637 9.78236 1.5887C10.836 2.40111 11.8456 3.26767 12.8717 4.11258C12.9158 4.14507 12.9544 4.18299 12.982 4.21007ZM14.2674 5.46117C14.9404 6.05152 15.5804 6.63645 16.2424 7.18889C17.3567 8.10962 18.5814 8.8137 20.082 8.90578C21.075 8.96535 22.0128 8.8137 22.7906 8.15295C23.7616 7.32971 24.054 6.25191 23.9271 5.02789C23.7726 3.46807 22.5479 2.24404 20.9701 2.08698C19.9771 1.98407 19.0559 2.22779 18.1897 2.68274C16.772 3.42474 15.5362 4.42129 14.2674 5.46117ZM11.7628 5.42868C10.9795 4.83833 10.2513 4.26423 9.4955 3.71721C8.74523 3.1756 7.97842 2.66108 7.09024 2.36319C6.06414 2.02198 5.02149 1.91908 4.00091 2.36319C2.68243 2.94813 1.98733 4.24798 2.08663 5.89987C2.16938 7.31887 3.21754 8.53207 4.63532 8.82453C5.66694 9.03576 6.66545 8.90578 7.62535 8.5104C9.25277 7.8334 10.4609 6.60396 11.7628 5.42868Z" fill="black"/>
</svg>
