<svg width="16" height="16" viewBox="0 0 16 16" fill="none" xmlns="http://www.w3.org/2000/svg">
<g opacity="0.3">
<path d="M7.98093 16C6.4267 16 4.86293 16 3.3087 16C1.40167 15.9905 0 14.5888 0 12.6722C0 9.55423 0 6.44577 0 3.32777C0 1.42074 1.4112 0 3.32777 0C6.4553 0 9.5733 0 12.7008 0C14.5793 0 16 1.40167 16 3.28963C16 6.4553 16 9.61144 15.9905 12.7771C15.9905 14.5507 14.5507 15.9905 12.7676 16C11.1752 16 9.58284 15.9905 7.98093 16ZM2.19309 8C2.19309 11.1847 4.80572 13.7974 8 13.7974C11.1561 13.8069 13.7974 11.1752 13.7974 8.01907C13.7974 4.81526 11.1847 2.19309 7.99047 2.19309C4.80572 2.19309 2.19309 4.81526 2.19309 8ZM13.683 1.42074C13.1871 1.43027 12.8057 1.83075 12.8153 2.33611C12.8248 2.82241 13.2348 3.22288 13.7211 3.22288C14.2074 3.21335 14.6269 2.77473 14.6174 2.28844C14.6079 1.81168 14.1788 1.4112 13.683 1.42074Z" fill="black"/>
<path d="M12.6436 8.00964C12.6436 10.5746 10.5554 12.6533 7.98089 12.6437C5.41593 12.6437 3.33727 10.5555 3.3468 7.98104C3.3468 5.41608 5.435 3.33742 8.00949 3.34696C10.5744 3.35649 12.6531 5.43515 12.6436 8.00964Z" fill="black"/>
</g>
</svg>
