<svg width="36" height="20" viewBox="0 0 36 20" fill="none" xmlns="http://www.w3.org/2000/svg">
<g clip-path="url(#clip0)">
<path d="M26.4515 5.26828C26.627 5.16761 26.7499 5.1005 26.8903 5.01661C28.9615 3.74144 31.0502 2.46627 33.1214 1.1911C34.1043 0.587076 35.1575 0.721304 35.7016 1.57701C35.9122 1.8958 35.9824 2.34882 35.9824 2.73473C36 6.87902 36 11.0065 36 15.1508C36 15.8555 35.9824 16.577 36 17.2817C36.0176 18.0032 35.7894 18.6072 35.1048 18.9763C34.4027 19.3622 33.7357 19.2112 33.0863 18.8086C31.0327 17.5334 28.979 16.275 26.9254 15.0166C26.785 14.9327 26.627 14.8488 26.4515 14.7481C26.4164 15.2851 26.4164 15.7884 26.3286 16.275C25.96 18.322 24.1521 19.8488 21.9932 19.9663C21.7825 19.983 21.5544 19.983 21.3437 19.983C15.9376 19.983 10.5139 19.983 5.10775 19.983C3.86153 19.983 2.73818 19.7314 1.77279 18.9428C0.57923 17.9696 0.0175524 16.728 0 15.2515C0 11.7616 0 8.25486 0.0175524 4.74815C0.0351048 2.44949 1.45685 0.704526 3.72111 0.134056C4.07216 0.0501633 4.44076 -0.000172272 4.80936 -0.000172272C10.4261 -0.000172272 16.0429 -0.0169508 21.6597 -0.000172272C24.0819 0.0166063 25.9951 1.59379 26.3813 3.87567C26.4515 4.32869 26.4339 4.78171 26.4515 5.26828ZM13.2345 18.5401C15.9551 18.5401 18.6758 18.5401 21.3964 18.5401C21.7825 18.5401 22.1863 18.5233 22.5724 18.4226C24.0995 18.0032 25.0122 16.7951 25.0297 15.1844C25.0297 11.728 25.0297 8.27164 25.0297 4.83204C25.0297 2.70117 23.608 1.35889 21.3788 1.35889C15.9376 1.34211 10.5139 1.34211 5.0902 1.35889C4.7216 1.35889 4.33545 1.40922 3.96685 1.49312C2.65041 1.79513 1.42175 2.9864 1.4393 4.84882C1.4744 8.25486 1.4393 11.6777 1.45685 15.0837C1.45685 15.4361 1.4744 15.7884 1.56216 16.124C1.98342 17.6508 3.2472 18.5569 4.94978 18.5569C7.70551 18.5569 10.4788 18.5401 13.2345 18.5401ZM34.5783 10.0166C34.5783 7.6005 34.5783 5.18439 34.5783 2.76828C34.5783 2.58372 34.5256 2.33204 34.4027 2.26493C34.2974 2.19781 34.0166 2.28171 33.8762 2.38238C31.5066 3.82533 29.137 5.28506 26.7499 6.74479C26.5392 6.87902 26.4339 7.01325 26.4339 7.28171C26.4515 9.11057 26.4515 10.9394 26.4339 12.7683C26.4339 13.0535 26.5392 13.1877 26.7674 13.3388C29.1195 14.7649 31.4715 16.2079 33.8235 17.6341C33.999 17.7347 34.2097 17.7515 34.4027 17.8186C34.4554 17.6173 34.5783 17.4159 34.5783 17.2146C34.5783 14.7817 34.5783 12.3992 34.5783 10.0166Z" fill="#038595"/>
<path d="M18.0017 15.8711C16.8328 15.251 15.7042 14.6509 14.5957 14.0308C14.2531 13.8308 13.9911 13.8308 13.6485 14.0108C12.54 14.6109 11.3913 15.171 10.1619 15.7911C10.3433 14.7909 10.4239 13.8508 10.6859 12.9707C11.0084 11.8905 10.8471 11.0904 9.92007 10.3904C9.17438 9.83028 8.56977 9.11019 7.78378 8.35009C8.30778 8.27008 8.71085 8.21008 9.11392 8.15007C10.0208 8.03005 10.9479 7.91004 11.8548 7.81002C12.1571 7.77002 12.3184 7.63 12.4594 7.36997C13.0439 6.20982 13.6283 5.06967 14.2733 3.80951C14.6763 4.66962 15.0391 5.42972 15.4019 6.16981C15.6639 6.70988 15.8049 7.40997 16.2483 7.73001C16.6715 8.05006 17.3971 7.97004 18.0017 8.07006C18.828 8.21008 19.6341 8.33009 20.541 8.49011C19.5334 9.45023 18.6063 10.3504 17.6389 11.2305C17.3971 11.4505 17.3366 11.6505 17.3769 11.9706C17.5785 13.1107 17.7598 14.2709 17.9412 15.411C17.9614 15.531 17.9815 15.671 18.0017 15.8711ZM16.5305 13.7708C16.4095 12.9107 16.2685 12.1906 16.1878 11.4505C16.1677 11.2705 16.2685 11.0104 16.3894 10.8704C16.8731 10.3103 17.3769 9.77028 17.8808 9.23021C17.2358 9.13019 16.5305 8.99018 15.8251 8.93017C15.4825 8.89016 15.3414 8.73014 15.2003 8.45011C14.898 7.79002 14.5756 7.14994 14.2329 6.42985C13.8702 7.12994 13.5074 7.77002 13.2051 8.4301C13.064 8.73014 12.8827 8.85016 12.5602 8.87016C11.8347 8.93017 11.1293 9.05018 10.2627 9.1702C10.8673 9.75027 11.3308 10.2503 11.8548 10.6904C12.1571 10.9504 12.1974 11.2105 12.137 11.5705C11.9959 12.2506 11.875 12.9307 11.7339 13.7108C12.4796 13.3307 13.1447 12.9707 13.8299 12.6706C14.0113 12.5906 14.2934 12.5906 14.4748 12.6706C15.1197 13.0107 15.7646 13.3707 16.5305 13.7708Z" fill="#038595"/>
</g>
<defs>
<clipPath id="clip0">
<rect width="36" height="20" fill="white"/>
</clipPath>
</defs>
</svg>
