<svg width="34" height="29" viewBox="0 0 34 29" fill="none" xmlns="http://www.w3.org/2000/svg">
<g clip-path="url(#clip0)">
<path d="M29.4615 2.04337C30.2245 2.12196 30.9678 2.12196 31.6721 2.27914C33.198 2.61315 34.0001 3.67412 34.0001 5.24594C34.0001 12.1226 34.0001 18.9993 34.0001 25.876C34.0001 27.8015 32.8067 29 30.8896 29C21.656 29 12.4028 28.9804 3.16921 29.0197C1.36944 29.0197 5.34467e-05 27.7033 0.0196162 25.876C0.0587416 18.9993 0.0587416 12.1226 0.0196162 5.24594C0.0196162 3.69377 1.03688 2.12196 3.05184 2.1416C3.58003 2.1416 4.08866 2.1416 4.67554 2.1416C4.75379 1.45394 4.51904 0.589437 5.28199 0.235778C5.73193 0.0196533 6.29925 5.62333e-06 6.78832 0.039301C8.05989 0.157187 7.94252 1.17887 7.96208 2.10231C14.0265 2.10231 20.0714 2.10231 26.1554 2.10231C26.1554 1.41464 26.2141 0.72697 26.8597 0.334016C27.1727 0.13754 27.5835 0.0196533 27.9552 0.0196533C28.8942 0.0196533 29.305 0.609084 29.4615 2.04337ZM1.13469 7.58402C1.13469 7.7019 1.11513 7.78049 1.11513 7.85908C1.11513 13.8909 1.11513 19.9424 1.11513 25.9743C1.11513 27.1335 1.81939 27.8408 2.97359 27.8408C12.305 27.8408 21.656 27.8408 30.9874 27.8408C31.2417 27.8408 31.5156 27.8015 31.7503 27.7033C32.5915 27.3692 32.8459 26.6816 32.8459 25.8171C32.8263 19.9031 32.8459 13.9892 32.8459 8.09486C32.8459 7.93768 32.8263 7.78049 32.8263 7.58402C22.2624 7.58402 11.7181 7.58402 1.13469 7.58402ZM1.11513 6.38551C11.7181 6.38551 22.282 6.38551 32.8263 6.38551C33.2175 3.94919 32.0829 2.90786 29.5006 3.30082C29.305 4.75475 28.8355 5.36383 27.8965 5.38347C27.5639 5.38347 27.1922 5.26559 26.8988 5.08876C26.2337 4.69581 26.1945 3.98849 26.1945 3.30082C20.0714 3.30082 14.0265 3.30082 7.98164 3.30082C7.86427 4.91193 7.62951 5.36383 6.72963 5.38347C6.221 5.40312 5.65368 5.36383 5.2233 5.12805C4.49948 4.75475 4.73423 3.92954 4.65598 3.26152C4.04954 3.26152 3.48222 3.26152 2.9149 3.26152C1.93676 3.28117 1.21294 3.94919 1.13469 4.93158C1.09557 5.38347 1.11513 5.85502 1.11513 6.38551ZM5.81018 1.15922C5.81018 2.06301 5.82974 2.98646 5.81018 3.89025C5.79062 4.30285 6.04493 4.2832 6.31881 4.2832C6.59269 4.2832 6.82744 4.30285 6.82744 3.89025C6.80788 3.22223 6.82744 2.55421 6.82744 1.88618C6.82744 1.04133 6.82744 1.04133 5.96668 1.11992C5.90799 1.11992 5.90799 1.11992 5.81018 1.15922ZM28.3073 2.69174C28.3073 2.35773 28.3073 2.00407 28.3073 1.67006C28.3073 1.33605 28.1312 1.11992 27.8182 1.11992C27.4857 1.11992 27.3096 1.33605 27.3096 1.65041C27.29 2.33808 27.3096 3.02575 27.3096 3.71342C27.3096 4.02778 27.4465 4.26356 27.7987 4.26356C28.1312 4.26356 28.3073 4.06708 28.3073 3.73307C28.3269 3.37941 28.3073 3.0454 28.3073 2.69174Z" fill="#FC6435"/>
<path d="M20.58 24.0881C19.4453 23.479 18.3498 22.8896 17.2739 22.2805C16.9413 22.084 16.687 22.084 16.3544 22.2608C15.2785 22.8503 14.1634 23.4004 12.9701 24.0095C13.1461 23.0271 13.2244 22.1037 13.4787 21.2392C13.7917 20.1782 13.6352 19.3923 12.7353 18.7046C12.0115 18.1545 11.4246 17.4471 10.6617 16.7005C11.1703 16.6219 11.5616 16.563 11.9528 16.5041C12.8331 16.3862 13.733 16.2683 14.6133 16.17C14.9068 16.1308 15.0633 15.9932 15.2002 15.7378C15.7676 14.5982 16.3349 13.4783 16.9609 12.2405C17.3521 13.0854 17.7043 13.832 18.0564 14.5589C18.3107 15.0894 18.4476 15.7771 18.878 16.0915C19.2888 16.4058 19.9931 16.3272 20.58 16.4255C21.382 16.563 22.1646 16.6809 23.0449 16.8381C22.0667 17.7812 21.1669 18.6653 20.2278 19.5298C19.9931 19.7459 19.9344 19.9424 19.9735 20.2568C20.1692 21.3767 20.3452 22.5163 20.5213 23.6362C20.5409 23.7541 20.5604 23.8916 20.58 24.0881ZM19.1519 22.0251C19.0345 21.1802 18.8976 20.4729 18.8193 19.7459C18.7998 19.5691 18.8976 19.3137 19.015 19.1761C19.4845 18.626 19.9735 18.0955 20.4626 17.565C19.8366 17.4668 19.1519 17.3293 18.4672 17.2703C18.1346 17.231 17.9977 17.0738 17.8608 16.7988C17.5673 16.1504 17.2543 15.5217 16.9218 14.8144C16.5696 15.502 16.2175 16.1308 15.9241 16.7791C15.7871 17.0738 15.611 17.1917 15.298 17.2114C14.5938 17.2703 13.9091 17.3882 13.0679 17.5061C13.6548 18.0759 14.1047 18.5671 14.6133 18.9993C14.9068 19.2547 14.9459 19.5102 14.8872 19.8638C14.7503 20.5318 14.6329 21.1999 14.496 21.9661C15.2198 21.5928 15.8654 21.2392 16.5305 20.9444C16.7066 20.8658 16.9804 20.8658 17.1565 20.9444C17.7825 21.2784 18.4085 21.6321 19.1519 22.0251Z" fill="#FC6435"/>
</g>
<defs>
<clipPath id="clip0">
<rect width="34" height="29" fill="white"/>
</clipPath>
</defs>
</svg>
