<svg width="10" height="14" viewBox="0 0 10 14" fill="none" xmlns="http://www.w3.org/2000/svg">
<g clip-path="url(#clip0)">
<path d="M10 5.10487C9.9866 4.40889 9.87048 3.73185 9.62037 3.08796C9.15141 1.88065 8.33854 1.02844 7.21751 0.498172C6.34212 0.0815336 5.4176 -0.0699712 4.46181 0.0341884C3.21572 0.166755 2.11702 0.659146 1.24609 1.63446C0.616345 2.3399 0.250111 3.18265 0.089325 4.13429C0.00446606 4.63141 -0.0312653 5.13801 0.0267963 5.63987C0.0491285 5.84345 0.093791 6.05177 0.151853 6.25062C0.424295 7.24961 0.888788 8.15864 1.39794 9.03926C2.12595 10.3034 2.95668 11.4917 3.76507 12.6943C3.97499 13.0068 4.1849 13.3287 4.39035 13.646C4.70746 14.1289 5.29254 14.1194 5.61411 13.6318C6.37338 12.4813 7.14605 11.3402 7.89638 10.185C8.48146 9.28072 9.03528 8.35749 9.45958 7.35377C9.67843 6.83297 9.86601 6.3027 9.95534 5.73929C9.98213 5.53097 9.9866 5.31792 10 5.10487ZM7.55694 5.2327C7.55248 6.79509 6.41358 7.95505 4.98437 7.94558C3.50156 7.93611 2.42519 6.71934 2.42966 5.22323C2.43412 3.71765 3.58642 2.49614 5.00223 2.51035C6.42251 2.51982 7.56588 3.73659 7.55694 5.2327Z" fill="black"/>
</g>
<defs>
<clipPath id="clip0">
<rect width="10" height="14" fill="white" transform="matrix(-1 0 0 1 10 0)"/>
</clipPath>
</defs>
</svg>
