<svg width="135" height="135" viewBox="0 0 135 135" fill="none" xmlns="http://www.w3.org/2000/svg">
<circle opacity="0.2" cx="67.5" cy="67.5" r="67.5" fill="#DBDBDB"/>
<path d="M99.3389 75.5174C99.3389 74.765 98.7973 74.2478 98.0437 74.2008C97.8318 74.1773 97.6198 74.1773 97.4079 74.1537C94.1817 73.8481 91.8269 71.2619 91.615 68.276C91.3559 64.4907 94.2995 61.4107 97.9495 61.3872C98.7737 61.3872 99.3624 60.7994 99.3624 59.9766C99.3624 56.685 99.4095 53.3935 99.3389 50.1019C99.2918 48.2445 98.3969 46.7868 96.7956 45.7994C95.7595 45.1646 94.6056 45 93.4047 45C82.2426 45 71.0806 45 59.9186 45C53.8431 45 47.7441 45 41.6685 45C38.4188 45 36.1111 47.3276 36.1111 50.5486C36.1111 51.8887 36.1111 53.2054 36.1111 54.5455C36.1111 56.3559 36.1111 58.1427 36.1111 59.953C36.1111 60.823 36.6527 61.3637 37.5475 61.4107C37.9479 61.4342 38.3246 61.4578 38.7014 61.5283C41.8098 62.1161 43.9527 64.9139 43.8585 67.8528C43.7408 71.4735 41.1976 73.9657 37.5946 74.2008C36.5114 74.2713 36.1111 74.6945 36.1111 75.7995C36.1111 78.8795 36.1111 81.9594 36.1111 85.0159C36.1111 88.2839 38.3717 90.541 41.6685 90.541C50.3579 90.541 59.0473 90.541 67.7368 90.541C76.4968 90.541 85.2333 90.541 93.9934 90.541C96.7956 90.541 99.2447 88.3544 99.3153 85.5566C99.4095 82.218 99.3624 78.8795 99.3389 75.5174ZM84.0088 64.6082C83.9381 65.0079 83.6085 65.4076 83.3023 65.6898C81.0888 67.6647 78.8517 69.5926 76.6146 71.5205C76.2142 71.8732 76.0965 72.1788 76.2142 72.7196C76.9207 75.5879 77.58 78.4563 78.2394 81.3246C78.4984 82.4296 78.0039 83.276 77.0384 83.2996C76.7087 83.3231 76.3084 83.1585 76.0023 82.9704C73.4826 81.4657 70.9394 79.961 68.4432 78.4328C67.9487 78.1271 67.5955 78.1036 67.0774 78.4092C64.5577 79.961 62.0145 81.4892 59.4712 82.9704C59.118 83.182 58.6706 83.276 58.2702 83.2525C57.5402 83.2055 57.1399 82.6648 57.1635 81.6773C57.399 80.6663 57.658 79.4437 57.9641 78.1976C58.4115 76.2697 58.859 74.3653 59.3299 72.4374C59.4006 72.1083 59.3535 71.8732 59.0709 71.6381C56.7631 69.6396 54.4554 67.6412 52.1476 65.6192C51.5354 65.102 51.3234 64.5377 51.5354 63.9734C51.7709 63.2916 52.2889 63.0565 52.9954 63.0095C56.0802 62.7509 59.1651 62.4687 62.2499 62.1631C62.4619 62.1396 62.7445 61.881 62.8387 61.6458C64.0396 58.8715 65.2406 56.0737 66.418 53.2759C66.6771 52.6646 66.9832 52.1944 67.7132 52.1944C68.4432 52.1944 68.7964 52.4765 69.1261 53.2759C70.3271 56.1207 71.5516 58.9656 72.7761 61.7869C72.8468 61.975 73.1058 62.1631 73.3178 62.1866C76.4026 62.4687 79.4875 62.7274 82.5723 63.0095C83.5849 63.1506 84.1972 63.7383 84.0088 64.6082Z" fill="#D6D6D6"/>
</svg>
