<svg width="22" height="19" viewBox="0 0 22 19" fill="none" xmlns="http://www.w3.org/2000/svg">
<g clip-path="url(#clip0)">
<path d="M19.0633 1.33876C19.557 1.39025 20.038 1.39025 20.4937 1.49323C21.4811 1.71207 22.0001 2.40719 22.0001 3.437C22.0001 7.94242 22.0001 12.4478 22.0001 16.9533C22.0001 18.2148 21.2279 19 19.9874 19C14.0127 19 8.02537 18.9871 2.05068 19.0129C0.886125 19.0129 4.89438e-05 18.1504 0.0127072 16.9533C0.0380236 12.4478 0.0380236 7.94242 0.0127072 3.437C0.0127072 2.42006 0.670935 1.39025 1.97473 1.40312C2.3165 1.40312 2.64562 1.40312 3.02537 1.40312C3.076 0.95258 2.9241 0.386185 3.41777 0.154477C3.70891 0.0128784 4.076 5.7891e-06 4.39245 0.025751C5.21524 0.102987 5.13929 0.772363 5.15195 1.37738C9.076 1.37738 12.9874 1.37738 16.9241 1.37738C16.9241 0.926835 16.9621 0.476293 17.3798 0.21884C17.5823 0.0901142 17.8482 0.0128784 18.0887 0.0128784C18.6963 0.0128784 18.9621 0.399057 19.0633 1.33876ZM0.734226 4.96884C0.734226 5.04608 0.721568 5.09757 0.721568 5.14906C0.721568 9.10096 0.721568 13.0657 0.721568 17.0176C0.721568 17.7771 1.17726 18.2405 1.9241 18.2405C7.96208 18.2405 14.0127 18.2405 20.0507 18.2405C20.2152 18.2405 20.3925 18.2148 20.5444 18.1504C21.0887 17.9316 21.2532 17.481 21.2532 16.9146C21.2406 13.04 21.2532 9.16532 21.2532 5.30353C21.2532 5.20055 21.2406 5.09757 21.2406 4.96884C14.4051 4.96884 7.58233 4.96884 0.734226 4.96884ZM0.721568 4.18361C7.58233 4.18361 14.4178 4.18361 21.2406 4.18361C21.4937 2.5874 20.7595 1.90515 19.0887 2.16261C18.9621 3.11518 18.6583 3.51423 18.0507 3.52711C17.8355 3.52711 17.595 3.44987 17.4051 3.33402C16.9747 3.07656 16.9494 2.61315 16.9494 2.16261C12.9874 2.16261 9.076 2.16261 5.16461 2.16261C5.08866 3.21816 4.93676 3.51423 4.35448 3.52711C4.02537 3.53998 3.65828 3.51423 3.3798 3.35976C2.91144 3.11518 3.06334 2.57453 3.01271 2.13686C2.6203 2.13686 2.25321 2.13686 1.88613 2.13686C1.25321 2.14973 0.784859 2.5874 0.734226 3.23104C0.70891 3.52711 0.721568 3.83605 0.721568 4.18361ZM3.75954 0.759491C3.75954 1.35163 3.7722 1.95665 3.75954 2.54879C3.74689 2.81911 3.91144 2.80624 4.08866 2.80624C4.26587 2.80624 4.41777 2.81911 4.41777 2.54879C4.40511 2.11112 4.41777 1.67345 4.41777 1.23578C4.41777 0.682255 4.41777 0.682255 3.86081 0.733746C3.82283 0.733746 3.82283 0.733746 3.75954 0.759491ZM18.3165 1.76356C18.3165 1.54472 18.3165 1.31301 18.3165 1.09418C18.3165 0.875345 18.2026 0.733746 18.0001 0.733746C17.7849 0.733746 17.6709 0.875344 17.6709 1.08131C17.6583 1.53185 17.6709 1.98239 17.6709 2.43293C17.6709 2.63889 17.7595 2.79337 17.9874 2.79337C18.2026 2.79337 18.3165 2.66464 18.3165 2.44581C18.3292 2.2141 18.3165 1.99526 18.3165 1.76356Z" fill="#FC6435"/>
<path d="M13.3165 15.7818C12.5823 15.3828 11.8734 14.9966 11.1772 14.5976C10.962 14.4688 10.7975 14.4688 10.5823 14.5847C9.88608 14.9709 9.16457 15.3313 8.39241 15.7304C8.50634 15.0867 8.55697 14.4817 8.72153 13.9153C8.92406 13.2202 8.82279 12.7053 8.24051 12.2547C7.77216 11.8943 7.39241 11.4309 6.89874 10.9417C7.22786 10.8902 7.48102 10.8516 7.73419 10.813C8.30381 10.7358 8.88608 10.6585 9.4557 10.5942C9.64558 10.5684 9.74684 10.4783 9.83545 10.311C10.2025 9.56437 10.5696 8.83063 10.9747 8.01965C11.2279 8.57318 11.4557 9.06234 11.6836 9.53862C11.8481 9.88618 11.9367 10.3367 12.2152 10.5427C12.481 10.7487 12.9367 10.6972 13.3165 10.7615C13.8355 10.8516 14.3418 10.9289 14.9114 11.0318C14.2785 11.6497 13.6962 12.229 13.0886 12.7954C12.9367 12.937 12.8987 13.0657 12.9241 13.2717C13.0506 14.0054 13.1646 14.752 13.2785 15.4858C13.2911 15.563 13.3038 15.6531 13.3165 15.7818ZM12.3924 14.4302C12.3165 13.8767 12.2279 13.4133 12.1772 12.937C12.1646 12.8211 12.2279 12.6538 12.3038 12.5637C12.6076 12.2033 12.9241 11.8557 13.2405 11.5081C12.8355 11.4438 12.3924 11.3537 11.9494 11.315C11.7342 11.2893 11.6456 11.1863 11.557 11.0061C11.3671 10.5813 11.1646 10.1694 10.9494 9.70597C10.7215 10.1565 10.4937 10.5684 10.3038 10.9932C10.2152 11.1863 10.1013 11.2636 9.89874 11.2764C9.44305 11.315 9.00001 11.3923 8.45571 11.4695C8.83545 11.8428 9.12659 12.1646 9.4557 12.4478C9.64558 12.6152 9.67089 12.7825 9.63292 13.0142C9.54431 13.4519 9.46836 13.8896 9.37976 14.3916C9.84811 14.147 10.2658 13.9153 10.6962 13.7222C10.8101 13.6707 10.9873 13.6707 11.1013 13.7222C11.5063 13.9411 11.9114 14.1728 12.3924 14.4302Z" fill="#FC6435"/>
</g>
<defs>
<clipPath id="clip0">
<rect width="22" height="19" fill="white"/>
</clipPath>
</defs>
</svg>
