<svg width="43" height="44" viewBox="0 0 43 44" fill="none" xmlns="http://www.w3.org/2000/svg">
<path d="M-0.000183615 21.9856C0.0276481 9.82509 9.68525 -0.028631 21.5416 -0.000152046C33.3979 0.0283269 43.0833 9.96748 42.9998 22.0426C42.9163 34.2316 33.2865 44.0853 21.4581 43.9998C9.54609 43.9429 -0.0280153 34.1176 -0.000183615 21.9856ZM18.2853 21.6154C13.3034 19.394 12.0509 14.3248 13.1086 10.7364C14.1383 7.2335 17.1998 4.38561 21.3746 4.32865C25.0205 4.27169 28.1377 6.40761 29.5571 9.85357C30.3364 11.7617 30.4477 13.7267 29.8911 15.7202C29.084 18.5112 27.3306 20.4477 24.7144 21.6439C27.8594 22.2134 30.6147 23.5519 33.0082 25.6309C35.4296 27.7099 37.1273 30.3299 38.2128 33.3772C43.5286 25.4031 42.8607 13.385 34.2607 6.12282C26.3286 -0.598211 14.3888 -0.142547 6.98558 7.7746C-0.306333 15.5778 0.166807 26.5707 4.75904 33.2918C7.26389 26.9979 11.7448 23.0678 18.2853 21.6154ZM21.2632 22.6976C20.6231 22.7545 19.7325 22.783 18.8419 22.9254C16.7545 23.2672 14.8063 24.0076 13.0251 25.1468C9.49043 27.3681 7.12473 30.5293 5.90014 34.5733C5.87231 34.6872 5.90014 34.8866 5.98363 34.972C7.12473 36.4529 8.46066 37.763 9.9914 38.8167C14.361 41.8924 19.2037 43.117 24.4639 42.3196C29.5571 41.5222 33.7597 39.0445 37.0438 34.972C37.1273 34.8866 37.1552 34.6872 37.1273 34.5733C36.5429 32.4089 35.5131 30.4723 34.0937 28.7636C30.8095 24.8335 26.6069 22.84 21.2632 22.6976ZM21.5137 5.7526C17.506 5.7526 14.194 9.11312 14.194 13.2426C14.1662 17.372 17.4781 20.761 21.5137 20.761C25.5215 20.761 28.8335 17.372 28.8335 13.271C28.8335 9.17007 25.5215 5.7526 21.5137 5.7526Z" fill="#FF643A"/>
</svg>
