<svg width="25" height="18" viewBox="0 0 25 18" fill="none" xmlns="http://www.w3.org/2000/svg">
<path d="M24.9907 12.062C24.9907 11.7646 24.7766 11.5601 24.4788 11.5416C24.395 11.5323 24.3112 11.5323 24.2275 11.523C22.9523 11.4022 22.0216 10.38 21.9378 9.19979C21.8354 7.70367 22.9989 6.48632 24.4416 6.47703C24.7673 6.47703 25 6.24471 25 5.91946C25 4.61848 25.0186 3.3175 24.9907 2.01652C24.9721 1.2824 24.6184 0.706247 23.9855 0.315953C23.576 0.0650491 23.1199 0 22.6452 0C18.2334 0 13.8217 0 9.4099 0C7.00856 0 4.59792 0 2.19657 0C0.912137 0 0 0.919979 0 2.19308C0 2.72277 0 3.24316 0 3.77284C0 4.48838 0 5.19463 0 5.91017C0 6.254 0.214073 6.46773 0.567759 6.48632C0.725987 6.49561 0.874907 6.5049 1.02383 6.53278C2.25242 6.7651 3.0994 7.87093 3.06217 9.03252C3.01564 10.4636 2.01042 11.4486 0.586374 11.5416C0.158228 11.5694 0 11.7367 0 12.1735C0 13.3908 0 14.6082 0 15.8162C0 17.1079 0.893522 18 2.19657 18C5.63105 18 9.06553 18 12.5 18C15.9624 18 19.4155 18 22.8779 18C23.9855 18 24.9535 17.1358 24.9814 16.0299C25.0186 14.7104 25 13.3908 24.9907 12.062ZM18.9315 7.75013C18.9036 7.90811 18.7733 8.06608 18.6523 8.17759C17.7774 8.95818 16.8932 9.72019 16.0089 10.4822C15.8507 10.6216 15.8042 10.7424 15.8507 10.9561C16.1299 12.0898 16.3905 13.2235 16.6512 14.3573C16.7535 14.794 16.5581 15.1285 16.1765 15.1378C16.0462 15.1471 15.8879 15.0821 15.7669 15.0077C14.771 14.413 13.7658 13.8183 12.7792 13.2142C12.5838 13.0934 12.4442 13.0842 12.2394 13.205C11.2435 13.8183 10.2383 14.4223 9.23306 15.0077C9.09345 15.0914 8.9166 15.1285 8.75838 15.1193C8.46984 15.1007 8.31162 14.8869 8.32092 14.4966C8.414 14.0971 8.51638 13.6138 8.63738 13.1213C8.81422 12.3593 8.99107 11.6066 9.17722 10.8446C9.20514 10.7145 9.18652 10.6216 9.07483 10.5287C8.1627 9.73877 7.25056 8.94889 6.33842 8.14972C6.09643 7.94528 6.01266 7.72225 6.09643 7.49923C6.1895 7.22974 6.39427 7.13681 6.67349 7.11822C7.89278 7.016 9.11206 6.90449 10.3313 6.78369C10.4151 6.77439 10.5268 6.67217 10.564 6.57925C11.0387 5.48271 11.5134 4.37687 11.9788 3.27104C12.0812 3.02943 12.2022 2.84357 12.4907 2.84357C12.7792 2.84357 12.9188 2.95509 13.0491 3.27104C13.5238 4.39546 14.0078 5.51988 14.4918 6.635C14.5197 6.70934 14.6221 6.78369 14.7059 6.79298C15.9252 6.90449 17.1445 7.00671 18.3637 7.11822C18.764 7.17398 19.006 7.4063 18.9315 7.75013Z" fill="white"/>
</svg>
