<svg width="22" height="16" viewBox="0 0 22 16" fill="none" xmlns="http://www.w3.org/2000/svg">
<g opacity="0.32" clip-path="url(#clip0)">
<path d="M20.6866 0.530504C20.3808 1.40811 19.7764 2.0303 18.9444 2.58699C19.3995 2.58699 19.755 2.4953 20.1106 2.40361C20.4733 2.31192 20.8288 2.19403 21.2342 2.07614C21.099 2.37086 20.907 2.57389 20.7079 2.77037C20.3097 3.15678 19.9186 3.55629 19.4493 3.8772C19.2786 3.99509 19.1933 4.14572 19.1933 4.34875C19.1933 5.94024 18.9088 7.48587 18.219 8.94637C16.4128 12.7974 13.3195 15.1944 8.76126 15.8559C6.13015 16.2358 3.61993 15.8624 1.2306 14.7753C0.974596 14.6574 0.732819 14.5198 0.48393 14.3888C0.427041 14.3561 0.370152 14.3168 0.313263 14.2382C2.58171 14.3757 4.64393 13.878 6.53549 12.555C5.85282 12.4895 5.28393 12.3782 4.7506 12.1293C3.78349 11.6774 3.07949 11.0029 2.64571 10.0859C2.53904 9.85672 2.56749 9.77158 2.87326 9.80433C3.32837 9.85017 3.78349 9.85672 4.24571 9.71919C4.16037 9.56855 4.01104 9.58165 3.89726 9.54236C2.16926 8.94637 1.24482 7.77404 0.99593 6.12362C0.939041 5.75685 0.99593 5.72411 1.35149 5.87474C1.8066 6.06467 2.29015 6.16291 2.79504 6.21531C2.80926 6.07122 2.68126 6.04502 2.61015 5.99263C1.01726 4.74826 0.661707 2.83586 1.40837 1.23783C1.57193 0.890716 1.6146 0.890716 1.89193 1.17889C3.98971 3.32706 6.57815 4.61727 9.69282 4.97749C10.4964 5.06918 10.4822 5.04953 10.4537 4.31601C10.347 1.49325 13.355 -0.595978 16.2848 0.37987C16.8395 0.563251 17.3373 0.831772 17.7568 1.21163C17.9204 1.36227 18.0839 1.39501 18.3044 1.34262C18.9657 1.17234 19.6199 0.982406 20.2315 0.681138C20.3666 0.609096 20.4804 0.523955 20.6866 0.530504Z" fill="black"/>
</g>
<defs>
<clipPath id="clip0">
<rect width="21.3333" height="16" fill="white"/>
</clipPath>
</defs>
</svg>
