<svg width="41" height="23" viewBox="0 0 41 23" fill="none" xmlns="http://www.w3.org/2000/svg">
<g opacity="0.4" clip-path="url(#clip0)">
<path d="M30.1253 6.05754C30.3252 5.94176 30.4651 5.86458 30.6251 5.76811C32.9839 4.30166 35.3627 2.83522 37.7216 1.36878C38.841 0.674146 40.0405 0.828508 40.6602 1.81257C40.9 2.17918 40.98 2.70015 40.98 3.14394C41 7.90988 41 12.6565 41 17.4225C41 18.2329 40.98 19.0626 41 19.873C41.02 20.7027 40.7601 21.3973 39.9805 21.8218C39.1809 22.2656 38.4213 22.0919 37.6816 21.6288C35.3428 20.1624 33.0039 18.7153 30.665 17.2681C30.5051 17.1716 30.3252 17.0752 30.1253 16.9594C30.0853 17.5768 30.0853 18.1557 29.9854 18.7153C29.5656 21.0693 27.5066 22.8252 25.0478 22.9602C24.8079 22.9795 24.548 22.9795 24.3081 22.9795C18.1511 22.9795 11.9742 22.9795 5.81716 22.9795C4.39785 22.9795 3.11848 22.6901 2.01902 21.7832C0.659678 20.6641 0.0199902 19.2362 0 17.5382C0 13.5248 0 9.4921 0.0199902 5.45938C0.0399805 2.81592 1.65919 0.809213 4.23793 0.153172C4.63774 0.056696 5.05753 -0.00118993 5.47733 -0.00118993C11.8742 -0.00118993 18.2711 -0.0204852 24.668 -0.00118993C27.4266 0.0181054 29.6056 1.83186 30.0453 4.45603C30.1253 4.977 30.1053 5.49797 30.1253 6.05754ZM15.0726 21.3201C18.1711 21.3201 21.2696 21.3201 24.3681 21.3201C24.8079 21.3201 25.2677 21.3008 25.7075 21.1851C27.4466 20.7027 28.4861 19.3134 28.5061 17.4611C28.5061 13.4862 28.5061 9.51139 28.5061 5.55586C28.5061 3.10535 26.8869 1.56173 24.3481 1.56173C18.1511 1.54243 11.9742 1.54243 5.79717 1.56173C5.37738 1.56173 4.93759 1.61962 4.5178 1.71609C3.01853 2.06341 1.61921 3.43337 1.6392 5.57515C1.67918 9.4921 1.6392 13.4283 1.65919 17.3453C1.65919 17.7505 1.67918 18.1557 1.77913 18.5416C2.2589 20.2975 3.6982 21.3394 5.63725 21.3394C8.77572 21.3394 11.9342 21.3201 15.0726 21.3201ZM39.3808 11.5181C39.3808 8.73958 39.3808 5.96106 39.3808 3.18254C39.3808 2.97029 39.3208 2.68086 39.1809 2.60368C39.0609 2.52649 38.7411 2.62297 38.5812 2.73874C35.8825 4.39814 33.1838 6.07683 30.4651 7.75552C30.2253 7.90988 30.1053 8.06425 30.1053 8.37297C30.1253 10.4762 30.1253 12.5793 30.1053 14.6825C30.1053 15.0106 30.2253 15.1649 30.4851 15.3386C33.1638 16.9787 35.8425 18.6381 38.5212 20.2782C38.7211 20.3939 38.961 20.4132 39.1809 20.4904C39.2409 20.2589 39.3808 20.0273 39.3808 19.7958C39.3808 16.998 39.3808 14.258 39.3808 11.5181Z" fill="#2E2E2E"/>
<path d="M20.502 18.2518C19.1708 17.5387 17.8854 16.8486 16.623 16.1355C16.2328 15.9055 15.9344 15.9055 15.5442 16.1125C14.2818 16.8026 12.9735 17.4467 11.5734 18.1598C11.78 17.0096 11.8718 15.9285 12.1702 14.9163C12.5374 13.6742 12.3538 12.7541 11.298 11.949C10.4487 11.3049 9.76015 10.4768 8.86499 9.60265C9.46176 9.51064 9.92082 9.44163 10.3799 9.37262C11.4127 9.23461 12.4686 9.09659 13.5014 8.98157C13.8457 8.93557 14.0294 8.77455 14.19 8.47551C14.8557 7.14134 15.5213 5.83017 16.2558 4.38098C16.7148 5.37011 17.128 6.24422 17.5411 7.09533C17.8395 7.71641 18.0002 8.52151 18.5051 8.88956C18.9872 9.25761 19.8135 9.1656 20.502 9.28061C21.4431 9.44163 22.3612 9.57965 23.3941 9.76367C22.2464 10.8678 21.1906 11.9029 20.0889 12.9151C19.8135 13.1681 19.7446 13.3981 19.7905 13.7662C20.02 15.0774 20.2266 16.4115 20.4332 17.7227C20.4561 17.8607 20.4791 18.0217 20.502 18.2518ZM18.8265 15.8365C18.6888 14.8473 18.5281 14.0192 18.4363 13.1681C18.4133 12.9611 18.5281 12.662 18.6658 12.501C19.2167 11.8569 19.7905 11.2359 20.3643 10.6148C19.6298 10.4998 18.8265 10.3387 18.0231 10.2697C17.6329 10.2237 17.4723 10.0397 17.3116 9.71767C16.9673 8.95857 16.6001 8.22248 16.2099 7.39437C15.7967 8.19947 15.3836 8.93557 15.0393 9.69467C14.8786 10.0397 14.672 10.1777 14.3048 10.2007C13.4785 10.2697 12.6751 10.4078 11.6882 10.5458C12.3768 11.2129 12.9047 11.7879 13.5014 12.294C13.8457 12.593 13.8916 12.8921 13.8228 13.3061C13.6621 14.0882 13.5244 14.8703 13.3637 15.7674C14.213 15.3304 14.9704 14.9163 15.7508 14.5713C15.9574 14.4793 16.2787 14.4793 16.4853 14.5713C17.2198 14.9623 17.9543 15.3764 18.8265 15.8365Z" fill="#2E2E2E"/>
</g>
<defs>
<clipPath id="clip0">
<rect width="41" height="23" fill="white"/>
</clipPath>
</defs>
</svg>
