<svg width="16" height="16" viewBox="0 0 16 16" fill="none" xmlns="http://www.w3.org/2000/svg">
<g opacity="0.4" clip-path="url(#clip0)">
<path d="M0 8.00289C0 3.56611 3.57824 -0.00611827 8.00901 -0.000114514C12.4338 0.00588924 16.006 3.59013 16 8.0149C16 12.4277 12.4098 16.0059 7.98499 16.0059C3.57223 15.9999 0 12.4216 0 8.00289ZM7.49869 1.06855C7.45666 1.08056 7.43265 1.08656 7.40263 1.09257C6.92833 1.25467 6.54409 1.55486 6.21388 1.92709C5.6075 2.60551 5.22326 3.40401 4.93508 4.25054C4.6409 5.10908 4.4848 5.99763 4.39475 6.8982C4.37674 7.09632 4.37073 7.29445 4.36473 7.49257C5.42139 7.49257 6.45403 7.49257 7.50469 7.49257C7.49869 5.35523 7.49869 3.2239 7.49869 1.06855ZM4.36473 8.5072C4.36473 8.57324 4.35872 8.63328 4.36473 8.69332C4.41276 9.11959 4.44278 9.54585 4.50882 9.97212C4.67692 11.0948 4.99512 12.1635 5.55947 13.1541C5.88368 13.7305 6.27392 14.2528 6.83827 14.619C7.0364 14.7511 7.26454 14.8412 7.49268 14.9612C7.49268 12.7759 7.49268 10.6445 7.49268 8.5072C6.44803 8.5072 5.40938 8.5072 4.36473 8.5072ZM8.50732 14.9612C8.74747 14.8352 8.97561 14.7391 9.17373 14.607C9.88218 14.1267 10.3265 13.4363 10.6867 12.6858C11.0949 11.8273 11.3531 10.9207 11.4912 9.98413C11.5632 9.49782 11.6053 9.00552 11.6653 8.5012C10.5966 8.5012 9.55197 8.5012 8.50732 8.5012C8.50732 10.6505 8.50732 12.7819 8.50732 14.9612ZM8.50732 1.06855C8.50732 3.2179 8.50732 5.34923 8.50732 7.48056C9.55797 7.48056 10.5906 7.48056 11.6413 7.48056C11.6353 7.39651 11.6293 7.31846 11.6233 7.24641C11.5572 6.03366 11.3291 4.85092 10.8728 3.72221C10.5486 2.92972 10.1283 2.19726 9.47392 1.6209C9.19174 1.37474 8.88555 1.17662 8.50732 1.06855ZM14.9794 8.5012C14.1929 8.5012 13.4184 8.5012 12.6379 8.5012C12.5298 10.6085 12.1036 12.6078 10.8488 14.3729C13.0642 13.4423 14.8113 11.1248 14.9794 8.5012ZM10.8308 1.60889C11.4852 2.47944 11.8934 3.42202 12.1816 4.42465C12.4638 5.42728 12.6019 6.45392 12.6439 7.49257C13.4304 7.49257 14.2049 7.49257 14.9734 7.49257C14.8233 5.03703 13.2743 2.69557 10.8308 1.60889ZM3.3621 7.49857C3.39812 6.44792 3.54221 5.42728 3.82439 4.42465C4.10657 3.42202 4.51482 2.47944 5.13321 1.6269C3.81238 2.22728 2.76773 3.13384 2.01726 4.37062C1.4349 5.32521 1.09268 6.36386 1.02064 7.49257C1.80713 7.49857 2.57561 7.49857 3.3621 7.49857ZM1.02664 8.5072C1.13471 10.9387 2.81576 13.4123 5.13921 14.3729C3.88443 12.6138 3.46416 10.6085 3.35009 8.5072C2.57561 8.5072 1.80713 8.5072 1.02664 8.5072Z" fill="black"/>
</g>
<defs>
<clipPath id="clip0">
<rect width="16" height="16" fill="white"/>
</clipPath>
</defs>
</svg>
