<svg width="274" height="246" viewBox="0 0 274 246" fill="none" xmlns="http://www.w3.org/2000/svg">
<g clip-path="url(#clip0)">
<path d="M140.131 143.361L80.4135 144.41C79.4708 144.428 78.5338 144.261 77.656 143.918C76.7782 143.574 75.9769 143.061 75.2979 142.407C74.6189 141.754 74.0756 140.973 73.6991 140.11C73.3226 139.247 73.1202 138.317 73.1036 137.376C73.0871 136.434 73.2566 135.499 73.6025 134.623C73.9484 133.747 74.4639 132.947 75.1194 132.27C75.775 131.594 76.5578 131.053 77.423 130.678C78.2881 130.304 79.2187 130.104 80.1614 130.09L139.879 129.041C140.77 129.025 141.63 129.364 142.27 129.981C142.911 130.599 143.28 131.446 143.295 132.335L143.429 139.949C143.444 140.799 143.135 141.624 142.564 142.255C141.994 142.887 141.204 143.278 140.356 143.35C140.281 143.356 140.207 143.359 140.131 143.361Z" fill="#FC6435"/>
<path d="M128.598 145.307L79.6047 147.541C79.1643 147.561 78.7242 147.494 78.3096 147.344C77.895 147.195 77.5139 146.965 77.1883 146.668C76.8626 146.371 76.5987 146.013 76.4115 145.614C76.2244 145.215 76.1177 144.784 76.0976 144.344L75.5792 132.998C75.5386 132.11 75.853 131.241 76.4533 130.584C77.0535 129.927 77.8904 129.535 78.7799 129.495L127.774 127.261C128.214 127.241 128.654 127.307 129.069 127.457C129.483 127.607 129.864 127.837 130.19 128.134C130.516 128.431 130.78 128.789 130.967 129.187C131.154 129.586 131.261 130.018 131.281 130.458L131.799 141.804C131.838 142.67 131.539 143.518 130.966 144.169C130.393 144.821 129.59 145.225 128.725 145.299C128.683 145.302 128.641 145.305 128.598 145.307Z" fill="black"/>
<path d="M45.7466 242.647V179.179C45.7476 178.289 46.1016 177.437 46.7311 176.808C47.3605 176.18 48.2138 175.826 49.1039 175.825H56.7276C57.6178 175.826 58.4711 176.18 59.1005 176.808C59.7299 177.437 60.084 178.289 60.085 179.179V242.647C60.084 243.536 59.7299 244.388 59.1005 245.017C58.4711 245.645 57.6177 245.999 56.7276 246H49.1039C48.2138 245.999 47.3605 245.645 46.7311 245.017C46.1016 244.388 45.7476 243.536 45.7466 242.647Z" fill="#FC6435"/>
<path d="M65.7524 242.647V179.179C65.7534 178.289 66.1075 177.437 66.7369 176.808C67.3663 176.18 68.2197 175.826 69.1098 175.825H76.7335C77.6236 175.826 78.477 176.18 79.1064 176.808C79.7358 177.437 80.0899 178.289 80.0909 179.179V242.647C80.0898 243.536 79.7358 244.388 79.1064 245.017C78.477 245.645 77.6236 245.999 76.7335 246H69.1098C68.2197 245.999 67.3663 245.645 66.7369 245.017C66.1075 244.388 65.7535 243.536 65.7524 242.647Z" fill="#FC6435"/>
<path d="M67.7433 109.589C82.2918 109.589 94.0857 97.8083 94.0857 83.2761C94.0857 68.7438 82.2918 56.9631 67.7433 56.9631C53.1948 56.9631 41.4009 68.7438 41.4009 83.2761C41.4009 97.8083 53.1948 109.589 67.7433 109.589Z" fill="#FC6435"/>
<path d="M82.0025 92.2604C82.8498 91.9823 83.6277 91.5262 84.2839 90.9227C84.7186 90.4918 85.0538 89.9712 85.2659 89.3974C85.478 88.8235 85.562 88.2102 85.5119 87.6006C85.4843 87.1662 85.3566 86.744 85.1386 86.3671C84.9207 85.9902 84.6184 85.6688 84.2555 85.4279C83.3134 84.8243 82.0535 84.8225 80.7707 85.3872L80.8193 75.115L79.7863 75.1101L79.7291 87.1862L80.5251 86.686C81.4481 86.1071 82.7662 85.6996 83.6976 86.2965C83.9278 86.4542 84.1184 86.6628 84.2547 86.9061C84.391 87.1494 84.4693 87.4208 84.4835 87.6993C84.5183 88.1534 84.4548 88.6098 84.2972 89.0372C84.1397 89.4646 83.8918 89.8531 83.5704 90.1763C82.4297 91.2647 80.7655 91.605 78.8677 91.9092L79.0314 92.9279C80.0397 92.7945 81.0341 92.5711 82.0025 92.2604Z" fill="black"/>
<path d="M91.468 74.5958L85.9521 75.3235L86.0874 76.3464L91.6033 75.6187L91.468 74.5958Z" fill="black"/>
<path d="M74.0579 76.892L68.542 77.6196L68.6772 78.6425L74.1931 77.9149L74.0579 76.892Z" fill="black"/>
<path d="M11.8567 81.1985L49.6782 127.373C50.2748 128.101 50.7221 128.939 50.9944 129.839C51.2667 130.74 51.3587 131.685 51.2653 132.621C51.1718 133.557 50.8946 134.466 50.4495 135.295C50.0044 136.124 49.4002 136.857 48.6714 137.452C47.9425 138.048 47.1034 138.495 46.2018 138.766C45.3002 139.038 44.3538 139.129 43.4168 139.035C42.4798 138.942 41.5705 138.664 40.7408 138.219C39.9111 137.775 39.1772 137.171 38.5812 136.442L0.759545 90.2679C0.480321 89.9271 0.271035 89.5346 0.143654 89.113C0.0162728 88.6914 -0.0267193 88.2488 0.017139 87.8106C0.0609973 87.3724 0.190839 86.9471 0.399259 86.559C0.607678 86.1709 0.890588 85.8276 1.23183 85.5488L7.13211 80.7265C7.82131 80.1633 8.70625 79.8967 9.59226 79.9852C10.4783 80.0737 11.2928 80.5101 11.8567 81.1985H11.8567Z" fill="#FC6435"/>
<path d="M24.4702 91.5041L55.5272 129.42C55.8064 129.761 56.0157 130.153 56.1431 130.575C56.2705 130.997 56.3135 131.439 56.2696 131.877C56.2257 132.316 56.0959 132.741 55.8875 133.129C55.6791 133.517 55.3962 133.86 55.0549 134.139L44.9769 142.376C44.6357 142.655 44.2428 142.864 43.8207 142.991C43.3986 143.118 42.9556 143.161 42.5168 143.117C42.0781 143.073 41.6523 142.944 41.2638 142.735C40.8753 142.527 40.5317 142.245 40.2525 141.904L9.19538 103.988C8.63251 103.299 8.36613 102.416 8.45467 101.531C8.54321 100.646 8.97945 99.8326 9.66768 99.2688L19.7458 91.0322C20.4349 90.469 21.3198 90.2023 22.2058 90.2908C23.0918 90.3793 23.9064 90.8158 24.4702 91.5041L24.4702 91.5041Z" fill="black"/>
<path d="M239.791 45.4098C239.411 44.5091 238.775 43.7394 237.962 43.1959C237.149 42.6524 236.194 42.359 235.216 42.3521H143.889C142.576 42.3528 141.318 42.874 140.389 43.8012C139.461 44.7284 138.939 45.9858 138.938 47.2971V162.704C138.939 164.016 139.461 165.273 140.389 166.2C141.318 167.128 142.576 167.649 143.889 167.65H235.219C236.531 167.648 237.789 167.126 238.718 166.199C239.646 165.272 240.168 164.015 240.169 162.704V47.2971C240.172 46.6493 240.044 46.0076 239.794 45.4098H239.791ZM239.067 162.704C239.066 163.724 238.659 164.702 237.937 165.423C237.215 166.144 236.237 166.55 235.216 166.551H143.889C142.868 166.551 141.888 166.146 141.166 165.425C140.444 164.703 140.038 163.725 140.038 162.705V47.2978C140.039 46.278 140.445 45.3003 141.167 44.5792C141.889 43.858 142.868 43.4523 143.889 43.4509H235.219C235.988 43.4538 236.739 43.6855 237.375 44.1166C238.012 44.5476 238.506 45.1583 238.794 45.8708C238.85 46.0128 238.898 46.1577 238.938 46.3048C239.026 46.6286 239.07 46.9625 239.07 47.2978L239.067 162.704Z" fill="#3F3D56"/>
<path d="M220.733 69.5993H193.224C192.934 69.5997 192.648 69.5432 192.381 69.4329C192.113 69.3227 191.87 69.1608 191.665 68.9566C191.461 68.7525 191.298 68.51 191.187 68.243C191.077 67.9761 191.02 67.6899 191.02 67.401C191.02 67.112 191.077 66.8259 191.187 66.5589C191.298 66.292 191.461 66.0495 191.665 65.8453C191.87 65.6411 192.113 65.4793 192.381 65.369C192.648 65.2587 192.934 65.2022 193.224 65.2026H220.733C221.022 65.2022 221.308 65.2587 221.576 65.369C221.843 65.4793 222.086 65.6411 222.291 65.8453C222.496 66.0495 222.658 66.292 222.769 66.5589C222.88 66.8259 222.937 67.112 222.937 67.401C222.937 67.6899 222.88 67.9761 222.769 68.243C222.658 68.51 222.496 68.7525 222.291 68.9566C222.086 69.1608 221.843 69.3227 221.576 69.4329C221.308 69.5432 221.022 69.5997 220.733 69.5993Z" fill="#CCCCCC"/>
<path d="M220.733 81.1401H193.224C192.934 81.1405 192.648 81.084 192.381 80.9737C192.113 80.8634 191.87 80.7016 191.665 80.4974C191.461 80.2932 191.298 80.0507 191.187 79.7838C191.077 79.5169 191.02 79.2307 191.02 78.9417C191.02 78.6528 191.077 78.3666 191.187 78.0997C191.298 77.8328 191.461 77.5903 191.665 77.3861C191.87 77.1819 192.113 77.02 192.381 76.9098C192.648 76.7995 192.934 76.743 193.224 76.7434H220.733C221.022 76.743 221.308 76.7995 221.576 76.9098C221.843 77.02 222.086 77.1819 222.291 77.3861C222.496 77.5903 222.658 77.8328 222.769 78.0997C222.88 78.3666 222.937 78.6528 222.937 78.9417C222.937 79.2307 222.88 79.5169 222.769 79.7838C222.658 80.0507 222.496 80.2932 222.291 80.4974C222.086 80.7016 221.843 80.8634 221.576 80.9737C221.308 81.084 221.022 81.1405 220.733 81.1401Z" fill="#CCCCCC"/>
<path d="M179.109 87.7112H159.006C158.349 87.7105 157.72 87.4498 157.256 86.9861C156.792 86.5224 156.53 85.8938 156.53 85.238V61.5411C156.53 60.8854 156.792 60.2567 157.256 59.793C157.72 59.3294 158.349 59.0686 159.006 59.0679H179.109C179.766 59.0686 180.395 59.3294 180.859 59.793C181.323 60.2567 181.584 60.8854 181.585 61.5411V85.238C181.584 85.8938 181.323 86.5224 180.859 86.9861C180.395 87.4498 179.766 87.7105 179.109 87.7112Z" fill="#FC6435"/>
<path d="M220.541 104.771H158.371C157.788 104.771 157.228 104.54 156.815 104.127C156.402 103.715 156.17 103.156 156.17 102.573C156.17 101.99 156.402 101.431 156.815 101.018C157.228 100.606 157.788 100.375 158.371 100.375H220.541C221.125 100.375 221.684 100.606 222.097 101.018C222.51 101.431 222.742 101.99 222.742 102.573C222.742 103.156 222.51 103.715 222.097 104.127C221.684 104.54 221.125 104.771 220.541 104.771Z" fill="#CCCCCC"/>
<path d="M220.541 116.312H158.372C157.789 116.311 157.23 116.079 156.818 115.667C156.406 115.255 156.174 114.696 156.174 114.114C156.174 113.531 156.406 112.973 156.818 112.56C157.23 112.148 157.789 111.916 158.372 111.915H220.541C220.831 111.915 221.117 111.971 221.385 112.082C221.652 112.192 221.895 112.354 222.1 112.558C222.305 112.762 222.467 113.005 222.578 113.272C222.689 113.538 222.746 113.825 222.746 114.114C222.746 114.403 222.689 114.689 222.578 114.956C222.467 115.223 222.305 115.465 222.1 115.669C221.895 115.873 221.652 116.035 221.385 116.146C221.117 116.256 220.831 116.312 220.541 116.312Z" fill="#CCCCCC"/>
<path d="M220.541 127.853H158.372C157.789 127.852 157.23 127.62 156.818 127.208C156.406 126.795 156.174 126.237 156.174 125.654C156.174 125.072 156.406 124.513 156.818 124.101C157.23 123.689 157.789 123.457 158.372 123.456H220.541C220.831 123.456 221.117 123.512 221.385 123.622C221.652 123.733 221.895 123.895 222.1 124.099C222.305 124.303 222.467 124.545 222.578 124.812C222.689 125.079 222.746 125.365 222.746 125.654C222.746 125.943 222.689 126.23 222.578 126.496C222.467 126.763 222.305 127.006 222.1 127.21C221.895 127.414 221.652 127.576 221.385 127.686C221.117 127.797 220.831 127.853 220.541 127.853Z" fill="#CCCCCC"/>
<path d="M220.541 139.393H158.372C157.789 139.392 157.23 139.16 156.818 138.748C156.406 138.336 156.174 137.777 156.174 137.195C156.174 136.612 156.406 136.054 156.818 135.642C157.23 135.23 157.789 134.997 158.372 134.997H220.541C220.831 134.996 221.117 135.053 221.385 135.163C221.652 135.273 221.895 135.435 222.1 135.639C222.305 135.843 222.467 136.086 222.578 136.353C222.689 136.62 222.746 136.906 222.746 137.195C222.746 137.484 222.689 137.77 222.578 138.037C222.467 138.304 222.305 138.546 222.1 138.751C221.895 138.955 221.652 139.117 221.385 139.227C221.117 139.337 220.831 139.394 220.541 139.393Z" fill="#CCCCCC"/>
<path d="M220.541 150.934H158.372C157.789 150.933 157.23 150.701 156.818 150.289C156.406 149.877 156.174 149.318 156.174 148.736C156.174 148.153 156.406 147.595 156.818 147.182C157.23 146.77 157.789 146.538 158.372 146.537H220.541C220.831 146.537 221.117 146.593 221.385 146.704C221.652 146.814 221.895 146.976 222.1 147.18C222.305 147.384 222.467 147.627 222.578 147.894C222.689 148.161 222.746 148.447 222.746 148.736C222.746 149.025 222.689 149.311 222.578 149.578C222.467 149.845 222.305 150.087 222.1 150.291C221.895 150.496 221.652 150.657 221.385 150.768C221.117 150.878 220.831 150.934 220.541 150.934Z" fill="#CCCCCC"/>
<path d="M242.448 62.9415C259.849 62.9415 273.954 48.8516 273.954 31.4708C273.954 14.0899 259.849 0 242.448 0C225.048 0 210.942 14.0899 210.942 31.4708C210.942 48.8516 225.048 62.9415 242.448 62.9415Z" fill="#FC6435"/>
<path d="M241.838 53.1326C243.885 53.1326 245.545 51.4747 245.545 49.4296C245.545 47.3845 243.885 45.7266 241.838 45.7266C239.791 45.7266 238.131 47.3845 238.131 49.4296C238.131 51.4747 239.791 53.1326 241.838 53.1326Z" fill="white"/>
<path d="M241.441 10.7898C238.647 10.8175 235.973 11.9335 233.99 13.9003C232.006 15.8671 230.87 18.5294 230.821 21.3206C230.821 21.374 230.82 21.7497 230.82 22.2411C230.82 22.9615 231.107 23.6524 231.617 24.1619C232.127 24.6713 232.818 24.9576 233.54 24.9577C234.262 24.9575 234.954 24.6709 235.464 24.161C235.974 23.6511 236.261 22.9596 236.261 22.2387V22.2369C236.26 21.9027 236.26 21.6713 236.26 21.6571C236.26 20.7628 236.493 19.8838 236.936 19.1066C237.379 18.3294 238.017 17.6808 238.787 17.2246C239.557 16.7684 240.433 16.5203 241.328 16.5048C242.223 16.4892 243.107 16.7067 243.893 17.1358C244.678 17.5649 245.339 18.1909 245.808 18.9522C246.278 19.7135 246.542 20.5839 246.573 21.4777C246.604 22.3716 246.401 23.258 245.985 24.05C245.569 24.8419 244.954 25.5121 244.2 25.9944L244.201 25.9956C244.201 25.9956 240.33 28.4846 239.15 31.8991L239.151 31.8994C238.944 32.5989 238.839 33.3247 238.839 34.0542C238.839 34.3541 238.857 36.9781 238.891 39.1078C238.903 39.8427 239.203 40.5434 239.728 41.0588C240.252 41.5742 240.959 41.8629 241.695 41.8628C242.063 41.8627 242.427 41.7903 242.768 41.6495C243.108 41.5087 243.417 41.3024 243.677 41.0423C243.938 40.7822 244.144 40.4733 244.285 40.1335C244.426 39.7936 244.499 39.4294 244.499 39.0616L244.499 39.0444C244.487 37.0939 244.48 34.8228 244.48 34.658C244.48 32.5613 246.505 30.4724 248.169 29.1101C250.094 27.5526 251.447 25.4007 252.016 22.9921C252.138 22.4956 252.206 21.9872 252.217 21.476C252.217 20.0726 251.94 18.683 251.403 17.3865C250.865 16.0899 250.077 14.9119 249.084 13.9195C248.09 12.9272 246.911 12.1401 245.613 11.603C244.315 11.066 242.924 10.7896 241.519 10.7896C241.493 10.7896 241.467 10.7897 241.441 10.7898Z" fill="white"/>
<path d="M61.1396 71.6341C65.856 68.537 71.7835 69.9303 77.0255 70.3349C81.7621 70.7005 87.3762 70.3403 90.7076 66.4748C94.1735 62.4532 93.8839 56.4823 91.0144 52.2286C88.19 48.0418 83.5015 45.398 78.5415 44.701C75.7934 44.2988 72.9915 44.4725 70.3142 45.211C67.6369 45.9495 65.1429 47.2367 62.9908 48.9906L64.6766 49.6881C63.6942 40.3071 56.7891 31.8266 47.5247 29.5262C38.1511 27.1988 27.6686 31.171 22.6676 39.5194C17.7375 47.7496 18.3215 59.2341 25.4179 66.0735C28.8259 69.3581 33.4617 71.0315 38.1664 70.1386C42.5053 69.3151 46.3605 66.1556 47.1725 61.694C47.9252 57.558 46.2809 52.8601 42.2533 51.0539C41.1513 50.5405 39.9469 50.2838 38.731 50.3032C37.5152 50.3226 36.3196 50.6176 35.2345 51.1659C34.2518 51.7182 33.4214 52.5052 32.8177 53.4565C32.2139 54.4078 31.8557 55.4938 31.7749 56.6173C31.6998 57.7049 31.9217 58.7925 32.4167 59.7642C32.9758 60.9042 34.6797 59.9055 34.1221 58.7685C33.7619 57.9326 33.6595 57.0083 33.828 56.1139C33.9966 55.2195 34.4284 54.3957 35.0682 53.7478C36.5322 52.2201 38.8432 51.9664 40.7886 52.591C44.3482 53.7338 45.9199 57.8128 45.2491 61.2732C44.4978 65.1491 41.1852 67.6396 37.4134 68.2773C33.3116 68.9708 29.3116 67.2407 26.4643 64.331C20.5012 58.2372 19.9852 48.4224 24.0077 41.1494C28.0884 33.7713 36.793 29.8094 45.0843 31.047C53.2831 32.2708 60.0352 38.7123 62.1391 46.6548C62.4046 47.6499 62.5926 48.664 62.7016 49.6881C62.7083 49.8801 62.7702 50.0661 62.8798 50.2239C62.9895 50.3818 63.1422 50.5048 63.3199 50.5783C63.4976 50.6518 63.6927 50.6728 63.882 50.6386C64.0713 50.6044 64.2467 50.5166 64.3874 50.3855C71.3931 44.5736 83.0455 45.197 88.7899 52.5085C91.6071 56.0942 92.4373 61.6622 89.1475 65.2641C86.0151 68.6937 80.8131 68.6972 76.5348 68.3216C71.0618 67.8411 65.0452 66.7114 60.1428 69.9307C59.0851 70.6252 60.0734 72.3343 61.1396 71.6341V71.6341Z" fill="black"/>
<path d="M82.381 201.311H42.8814C42.096 201.31 41.343 200.998 40.7876 200.443C40.2322 199.889 39.9198 199.137 39.9189 198.352V185.2C39.9198 184.416 40.2322 183.663 40.7876 183.109C41.343 182.554 42.096 182.242 42.8814 182.241H82.381C83.1665 182.242 83.9195 182.554 84.4749 183.109C85.0303 183.663 85.3426 184.416 85.3435 185.2V198.352C85.3426 199.137 85.0303 199.889 84.4749 200.443C83.9195 200.998 83.1665 201.31 82.381 201.311Z" fill="black"/>
<path d="M83.7309 136.469C82.4942 130.152 77.6911 125.149 71.457 123.092C73.7083 122.368 75.1396 121.297 75.1396 120.099C75.1396 117.92 70.4237 116.153 64.6064 116.153C58.789 116.153 54.0731 117.92 54.0731 120.099C54.0731 121.314 55.5434 122.401 57.8517 123.125C48.2942 125.971 41.357 134.279 41.357 144.063C41.357 144.063 38.415 162.902 36.1051 177.962C34.6273 187.596 42.7019 196.207 53.2105 196.207H90.168C92.5889 196.207 94.5583 194.383 94.5583 192.142C94.5583 192.142 87.7483 156.991 83.7309 136.469Z" fill="black"/>
</g>
<defs>
<clipPath id="clip0">
<rect width="273.955" height="246" fill="white"/>
</clipPath>
</defs>
</svg>
