<svg width="94" height="40" viewBox="0 0 94 40" fill="none" xmlns="http://www.w3.org/2000/svg">
<path d="M15.0288 33.7872C15.624 33.7872 16.4176 33.7045 17.4096 33.5392V38.4992C16.1531 38.6976 14.9131 38.7968 13.6896 38.7968C11.0773 38.7968 9.01069 38.1189 7.48962 36.7632C5.96854 35.4075 5.22455 33.3408 5.25762 30.5632L5.30722 17.7664H0.595215V12.9552H5.30722L5.35682 4.3248H10.9616L10.912 12.9552H17.36V17.7664H10.8624L10.8128 29.4224C10.8128 32.3323 12.2181 33.7872 15.0288 33.7872Z" fill="#FC6435"/>
<path d="M20.5806 1.69599C21.275 1.00159 22.1017 0.654388 23.0606 0.654388C24.0197 0.654388 24.8462 1.00159 25.5406 1.69599C26.235 2.35732 26.5822 3.16745 26.5822 4.12639C26.5822 5.08532 26.235 5.91199 25.5406 6.60639C24.8462 7.26772 24.0197 7.59839 23.0606 7.59839C22.1017 7.59839 21.275 7.26772 20.5806 6.60639C19.9193 5.91199 19.5886 5.08532 19.5886 4.12639C19.5886 3.16745 19.9193 2.35732 20.5806 1.69599ZM25.8382 38.4H20.283V12.9552H25.8382V38.4Z" fill="#FC6435"/>
<path d="M44.6572 25.4544L53.1388 38.4H46.4924L40.59 29.2736L34.638 38.4H28.1404L36.374 25.3552L28.3388 12.9552H34.9356L40.59 21.6848L46.1452 12.9552H52.742L44.6572 25.4544Z" fill="#FC6435"/>
<rect x="54" y="12" width="40" height="20" rx="4" fill="#FC6435"/>
<path d="M63.8179 26C65.7729 26 66.9854 24.9907 66.9854 23.3784C66.9854 22.166 66.0713 21.2583 64.8271 21.1631V21.1123C65.7983 20.9663 66.5474 20.1284 66.5474 19.1255C66.5474 17.7227 65.4683 16.8403 63.748 16.8403H59.7617V26H63.8179ZM61.6787 18.2686H63.2529C64.1479 18.2686 64.6621 18.6875 64.6621 19.4238C64.6621 20.1982 64.0781 20.6489 63.0562 20.6489H61.6787V18.2686ZM61.6787 24.5718V21.9121H63.2847C64.4146 21.9121 65.0303 22.3691 65.0303 23.2261C65.0303 24.1021 64.4336 24.5718 63.3291 24.5718H61.6787ZM74.1455 24.4131H69.9941V22.1025H73.9106V20.6299H69.9941V18.4209H74.1455V16.8403H68.0771V26H74.1455V24.4131ZM79.6362 26V18.4209H82.2896V16.8403H75.0723V18.4209H77.7192V26H79.6362ZM88.104 26H90.1416L86.9551 16.8403H84.7017L81.5215 26H83.4893L84.1875 23.7783H87.4058L88.104 26ZM85.7744 18.5923H85.8188L86.9932 22.3438H84.6001L85.7744 18.5923Z" fill="white"/>
</svg>
